<svg xmlns="http://www.w3.org/2000/svg" fill="none" viewBox="0 0 867 770">
  <path fill="#fff" fill-rule="evenodd" d="M71.94 769.86h145.75c34.31 0 51.47 0 66.78-4.24a110.03 110.03 0 0 0 44.84-26.02c11.69-11.14 20.12-25.9 36.76-55.02l.01-.02.5-.86L555.6 349.55c16.8-29.34 25.1-44.1 28.78-59.6a109.56 109.56 0 0 0 0-51.28c-3.66-15.38-12.04-30.03-28.58-58.93l-.38-.66-73.98-129.14C466.13 23 458.38 9.54 448.6 4.55a37.13 37.13 0 0 0-33.58 0C405.24 9.53 397.5 23 382.18 49.94L22.31 684.25C7.18 710.83-.39 724.12.17 735a37.04 37.04 0 0 0 16.8 28.97c9.22 5.9 24.34 5.9 54.97 5.9Zm722.65 0H585.75c-30.81 0-46.3 0-55.35-5.9a37.37 37.37 0 0 1-16.79-29.15c-.55-10.8 7.08-23.96 22.34-50.3l.36-.62 104.23-178.96c15.32-26.38 23.07-39.48 32.66-44.46a36.73 36.73 0 0 1 33.39 0c9.52 4.85 16.94 17.4 31.63 42.23l.02.04 1.19 2.01 104.61 178.96.2.35 1.31 2.25c14.5 25.02 21.9 37.8 21.37 48.32a36.92 36.92 0 0 1-16.79 29.15c-9.23 6.08-24.73 6.08-55.54 6.08Z" clip-rule="evenodd"/>
</svg>