<!-- <svg xmlns="http://www.w3.org/2000/svg" fill="none" viewBox="0 0 404 659">
  <path fill="#fff" d="m202 454.9 201.84-119.28L202 .7.16 335.6 202 454.92Z"/>
  <path fill="#fff" d="m202 658.28 201.95-284.4L202 493.08.16 373.89 202 658.28Z"/>
</svg> -->

<svg xmlns="http://www.w3.org/2000/svg" xml:space="preserve" width="100%" height="100%" version="1.1" shape-rendering="geometricPrecision" text-rendering="geometricPrecision" image-rendering="optimizeQuality" fill-rule="evenodd" clip-rule="evenodd"
viewBox="0 0 784.37 1277.39"
 xmlns:xlink="http://www.w3.org/1999/xlink"
 xmlns:xodm="http://www.corel.com/coreldraw/odm/2003">
 <g id="Layer_x0020_1">
  <metadata id="CorelCorpID_0Corel-Layer"/>
  <g id="_1421394342400">
   <g>
    <polygon fill="#343434" fill-rule="nonzero" points="392.07,0 383.5,29.11 383.5,873.74 392.07,882.29 784.13,650.54 "/>
    <polygon fill="#8C8C8C" fill-rule="nonzero" points="392.07,0 -0,650.54 392.07,882.29 392.07,472.33 "/>
    <polygon fill="#3C3C3B" fill-rule="nonzero" points="392.07,956.52 387.24,962.41 387.24,1263.28 392.07,1277.38 784.37,724.89 "/>
    <polygon fill="#8C8C8C" fill-rule="nonzero" points="392.07,1277.38 392.07,956.52 -0,724.89 "/>
    <polygon fill="#141414" fill-rule="nonzero" points="392.07,882.29 784.13,650.54 392.07,472.33 "/>
    <polygon fill="#393939" fill-rule="nonzero" points="0,650.54 392.07,882.29 392.07,472.33 "/>
   </g>
  </g>
 </g>
</svg>
