<?xml version="1.0"?>
<svg xmlns="http://www.w3.org/2000/svg" xmlns:xlink="http://www.w3.org/1999/xlink" xmlns:svgjs="http://svgjs.com/svgjs" version="1.1" width="512" height="512" x="0" y="0" viewBox="0 0 510 510" style="enable-background:new 0 0 512 512" xml:space="preserve" class=""><g transform="matrix(0.8999999999999999,0,0,0.9,25.49999999999997,25.500001525878872)"><g xmlns="http://www.w3.org/2000/svg"><g><path d="m508.406 226.325-6.293-8.232 4.172-6.706c-20.69-120.055-125.322-211.387-251.285-211.387-98.131 0-158.58 55.352-158.747 55.445 0 0-2.513 3.137-2.983 5.222-3.818 16.948-7.385 39.663-7.385 56.238 0 140.833 118.763 254.972 259.596 254.972 27.871 0 57.355-6.865 84.913-17.781 42.154-16.696 72.422-54.329 79.606-99.096 0-9.694-.541-19.262-1.594-28.675z" fill="#6b42c0" data-original="#afe6ff" class=""/><path d="m455.923 339.559c-33.421 16.094-70.887 25.12-110.464 25.12-140.833 0-255-114.167-255-255 0-18.615 2.007-36.753 5.795-54.234-58.645 46.72-96.254 118.747-96.254 199.555l52.609 142.859h403.314z" fill="#9562ff" data-original="#73c8f0" class=""/></g><g><g><g><g><path d="m249 153.021h12v47.071h-12z" fill="#000000" data-original="#783c28" class=""/></g></g><g><g><path d="m203.836 153.021h12v47.071h-12z" fill="#000000" data-original="#783c28" class=""/></g></g><g><g><path d="m158.672 161.021h12v47.071h-12z" fill="#000000" data-original="#783c28" class=""/></g></g><g><g><path d="m113.508 171.021h12v47.071h-12z" fill="#000000" data-original="#783c28" class=""/></g></g><g><g><path d="m68.345 187.022h12v47.071h-12z" fill="#000000" data-original="#783c28" class=""/></g></g><g><g><path d="m23.181 203.023h12v47.071h-12z" fill="#000000" data-original="#783c28" class=""/></g></g></g><g><g><g><path d="m294.359 153.021h12v47.071h-12z" fill="#000000" data-original="#a55a3c" class=""/></g></g><g><g><path d="m339.523 161.021h12v47.071h-12z" fill="#000000" data-original="#a55a3c" class=""/></g></g><g><g><path d="m384.687 171.021h12v47.071h-12z" fill="#000000" data-original="#a55a3c" class=""/></g></g><g><g><path d="m429.851 187.022h12v47.071h-12z" fill="#000000" data-original="#a55a3c" class=""/></g></g><g><g><path d="m475.015 203.023h12v47.071h-12z" fill="#000000" data-original="#a55a3c" class=""/></g></g></g><g><g><g><path d="m45.316 156.258h22v108.219h-22z" fill="#000000" data-original="#a5a0aa" class=""/></g></g><g><g><path d="m45.316 135.707h22v21.942h-22z" fill="#000000" data-original="#828291" class=""/></g></g><g><g><circle cx="55.982" cy="91.786" fill="#9562ff" r="25.667" data-original="#ffe65a" class=""/></g></g><g><g><path d="m98.63 36.106c-1.329-1.491-3.23-2.344-5.227-2.344h-59.252c3.061 3.816 3.759 9.382 2.09 14h49.305l-9.379 80.944h-36.008c1.977 4.421 1.629 9.96-1.02 14h43.263c3.554 0 6.544-2.664 6.954-6.194l11.001-94.944c.229-1.983-.399-3.97-1.727-5.462z" fill="#000000" data-original="#e6dcdc" class=""/></g></g><g><g><path d="m41.4 142.707h-11.17c-3.554 0-6.544-2.664-6.954-6.194l-11-94.944c-.229-1.983.398-3.971 1.727-5.462s3.23-2.344 5.227-2.344h18.169c3.866 0 7 3.134 7 7s-3.134 7-7 7h-10.311l9.378 80.944h4.934c3.866 0 7 3.134 7 7s-3.134 7-7 7z" fill="#000000" data-original="#c8bec3" class=""/></g></g><g><g><path d="m49.316 40.763h14v94.944h-14z" fill="#000000" data-original="#e6dcdc" class=""/></g></g><g><g><path d="m85.175 17.586h-40.27c3.428 4.929 3.268 12.273-.449 17h40.719c4.694 0 8.5-3.806 8.5-8.5s-3.806-8.5-8.5-8.5z" fill="#000000" data-original="#c8bec3" class=""/></g></g><g><g><path d="m49.172 34.586h-21.714c-4.694 0-8.5-3.806-8.5-8.5s3.806-8.5 8.5-8.5h21.714c4.694 0 8.5 3.806 8.5 8.5s-3.805 8.5-8.5 8.5z" fill="#000000" data-original="#a5a0aa" class=""/></g></g></g><g><g><g><path d="m440.341 157.649h22v106.828h-22z" fill="#000000" data-original="#a5a0aa" class=""/></g></g><g><g><path d="m440.341 135.707h22v21.942h-22z" fill="#000000" data-original="#828291" class=""/></g></g><g><g><circle cx="451.006" cy="91.786" fill="#9562ff" r="25.667" data-original="#ffe65a" class=""/></g></g><g><g><path d="m493.655 36.106c-1.329-1.491-3.23-2.344-5.227-2.344h-59.333c2.877 4.018 2.817 10.052-.162 14h51.637l-9.379 80.944h-34.841c2.652 4.18 2.37 10.225-.858 14h41.934c3.554 0 6.544-2.664 6.954-6.194l11.001-94.944c.23-1.983-.398-3.97-1.726-5.462z" fill="#000000" data-original="#e6dcdc" class=""/></g></g><g><g><path d="m436.425 142.707h-11.169c-3.554 0-6.544-2.664-6.954-6.194l-11-94.944c-.229-1.983.398-3.971 1.727-5.462s3.23-2.344 5.227-2.344h18.169c3.866 0 7 3.134 7 7s-3.134 7-7 7h-10.312l9.378 80.944h4.934c3.866 0 7 3.134 7 7s-3.134 7-7 7z" fill="#000000" data-original="#c8bec3" class=""/></g></g><g><g><path d="m444.341 40.763h14v94.944h-14z" fill="#000000" data-original="#e6dcdc" class=""/></g></g><g><g><path d="m480.2 17.586h-38.635c3.428 4.929 3.268 12.273-.449 17h39.084c4.694 0 8.5-3.806 8.5-8.5s-3.806-8.5-8.5-8.5z" fill="#000000" data-original="#c8bec3" class=""/></g></g><g><g><path d="m444.197 34.586h-21.714c-4.694 0-8.5-3.806-8.5-8.5s3.806-8.5 8.5-8.5h21.714c4.694 0 8.5 3.806 8.5 8.5s-3.805 8.5-8.5 8.5z" fill="#000000" data-original="#a5a0aa" class=""/></g></g></g><path d="m459.507 397.1h-409.21l-.453 9.373c17.556 23.738 39.134 44.321 63.727 60.744h282.816c24.573-16.392 46.18-36.956 63.773-60.74z" fill="#000000" data-original="#0360e8" class=""/><g><path d="m112.095 466.217c40.764 27.634 89.947 43.783 142.905 43.783 52.706 0 101.96-16.085 142.862-43.783z" fill="#a890fe" data-original="#2477f9" class=""/></g><g><path d="m27.088 279.781c4.526 43.734 18.177 120.297 18.177 120.297 1.494 2.156 3.021 4.288 4.579 6.395 8.451-19.214 27.654-32.63 49.991-32.63 30.147 0 54.586 24.439 54.586 54.586v9.462h45.994v-51.984c0-30.147 24.439-54.586 54.586-54.586 30.147 0 54.586 24.439 54.586 54.586v51.984h45.994v-9.462c0-30.147 24.439-54.586 54.586-54.586 22.338 0 41.542 13.418 49.992 32.634 20.986-28.371 36.26-61.322 44.041-97.238.121-.739 2.757-11.318 4.433-27.678-157.445-88.714-324.101-90.494-481.545-1.78z" fill="#000000" data-original="#fa870a" class=""/></g><path d="m198.751 191.101v208.142c.557.016 1.113.074 1.663.168v-40.505c0-30.147 24.439-54.586 54.586-54.586 30.147 0 54.586 24.439 54.586 54.586v107.472h45.994v-64.951c0-30.147 24.439-54.586 54.586-54.586 29.698 0 53.857 23.717 54.57 53.244 18.634-26.886 32.26-57.596 39.463-90.846.074-.451 1.084-4.566 2.241-11.424l-3.998-14.07 6.658-7.237c.532-6.403.888-13.529.898-21.177-95.956-54.452-204.998-75.855-311.247-64.23z" fill="#6b42c0" data-original="#ffc305" class=""/><path d="m199.625 191.01c-69.166 7.448-137.167 28.88-199.625 64.322.009 7.089.307 14.11.884 21.052l9.325 6.339-6.632 15.082c6.34 37.51 20.87 72.236 41.687 102.274.716-29.524 24.874-53.237 54.57-53.237 30.147 0 54.586 24.439 54.586 54.586v64.951h45.994v-275.468z" fill="#6b42c0" data-original="#ffa50a" class=""/><g><path d="m255 211.025c-22.277 0-44.486 1.425-66.488 4.232v20.172c21.991-2.918 44.204-4.405 66.488-4.405 87.891 0 174.701 23.017 251.045 66.563l.396.226c.933-5.525 1.96-12.831 2.671-21.434-77.683-42.778-165.368-65.354-254.112-65.354z" fill="#a890fe" data-original="#fa690f" class=""/></g><g><path d="m506.285 211.387c-76.871-42.136-163.556-64.366-251.285-64.366-25.628 0-51.165 1.911-76.396 5.648v12.131c25.222-3.824 50.762-5.78 76.396-5.78 88.584 0 176.08 23.199 253.027 67.089l.378.216c-.562-5.025-1.27-10.006-2.12-14.938z" fill="#000000" data-original="#a55a3c" class=""/></g><g><path d="m3.718 211.384c-.851 4.933-1.559 9.915-2.122 14.941l.377-.215c79.944-45.599 156.879-58.458 178.552-61.635 3.275-.48 5.539-3.521 5.057-6.796-.48-3.262-3.5-5.521-6.764-5.055-21.187 3.026-93.793 14.156-175.1 58.76z" fill="#000000" data-original="#783c28" class=""/></g><g><path d="m3.577 297.804.378-.216c57.685-32.903 121.347-54.075 186.934-62.463 4.993-.639 8.736-4.878 8.736-9.912 0-6.007-5.262-10.689-11.221-9.928-65.612 8.386-129.366 29.088-187.519 61.114.601 7.226 1.502 14.365 2.692 21.405z" fill="#a890fe" data-original="#cd5014" class=""/></g></g></g></g></svg>
