<?xml version="1.0"?>
<svg xmlns="http://www.w3.org/2000/svg" xmlns:xlink="http://www.w3.org/1999/xlink" xmlns:svgjs="http://svgjs.com/svgjs" version="1.1" width="512" height="512" x="0" y="0" viewBox="0 0 512 512" style="enable-background:new 0 0 512 512" xml:space="preserve" class=""><g>
<path xmlns="http://www.w3.org/2000/svg" style="" d="M286,90H15C6.709,90,0,83.291,0,75s6.709-15,15-15h271c8.291,0,15,6.709,15,15S294.291,90,286,90z" fill="#a890fe" data-original="#57555c" class=""/>
<path xmlns="http://www.w3.org/2000/svg" style="" d="M497,90h-91c-8.291,0-15-6.709-15-15s6.709-15,15-15h91c8.291,0,15,6.709,15,15S505.291,90,497,90z" fill="#6c42c0" data-original="#3c3a41" class=""/>
<g xmlns="http://www.w3.org/2000/svg">
	<path style="" d="M106,271H15c-8.291,0-15-6.709-15-15s6.709-15,15-15h91c8.291,0,15,6.709,15,15   C121,264.291,114.291,271,106,271z" fill="#a890fe" data-original="#57555c" class=""/>
	<path style="" d="M497,271H226c-8.291,0-15-6.709-15-15s6.709-15,15-15h271c8.291,0,15,6.709,15,15   C512,264.291,505.291,271,497,271z" fill="#a890fe" data-original="#57555c" class=""/>
	<path style="" d="M286,452H15c-8.291,0-15-6.709-15-15s6.709-15,15-15h271c8.291,0,15,6.709,15,15   S294.291,452,286,452z" fill="#a890fe" data-original="#57555c" class=""/>
</g>
<path xmlns="http://www.w3.org/2000/svg" style="" d="M497,452h-91c-8.291,0-15-6.709-15-15s6.709-15,15-15h91c8.291,0,15,6.709,15,15S505.291,452,497,452  z" fill="#6c42c0" data-original="#3c3a41" class=""/>
<path xmlns="http://www.w3.org/2000/svg" style="" d="M166,331c-41.353,0-75-33.647-75-75s33.647-75,75-75s75,33.647,75,75S207.353,331,166,331z" fill="#6c42c0" data-original="#549cff" class=""/>
<g xmlns="http://www.w3.org/2000/svg">
	<path style="" d="M286,422h-30v30h30c8.291,0,15-6.709,15-15S294.291,422,286,422z" fill="#6c42c0" data-original="#3c3a41" class=""/>
	<path style="" d="M497,241H256v30h241c8.291,0,15-6.709,15-15S505.291,241,497,241z" fill="#6c42c0" data-original="#3c3a41" class=""/>
	<path style="" d="M286,60h-30v30h30c8.291,0,15-6.709,15-15S294.291,60,286,60z" fill="#6c42c0" data-original="#3c3a41" class=""/>
</g>
<g xmlns="http://www.w3.org/2000/svg">
	<path style="" d="M346,150c-41.353,0-75-33.647-75-75s33.647-75,75-75s75,33.647,75,75S387.353,150,346,150z" fill="#8d65df" data-original="#1689fc" class=""/>
	<path style="" d="M346,512c-41.353,0-75-33.647-75-75s33.647-75,75-75s75,33.647,75,75S387.353,512,346,512z" fill="#8d65df" data-original="#1689fc" class=""/>
</g>
<g xmlns="http://www.w3.org/2000/svg">
</g>
<g xmlns="http://www.w3.org/2000/svg">
</g>
<g xmlns="http://www.w3.org/2000/svg">
</g>
<g xmlns="http://www.w3.org/2000/svg">
</g>
<g xmlns="http://www.w3.org/2000/svg">
</g>
<g xmlns="http://www.w3.org/2000/svg">
</g>
<g xmlns="http://www.w3.org/2000/svg">
</g>
<g xmlns="http://www.w3.org/2000/svg">
</g>
<g xmlns="http://www.w3.org/2000/svg">
</g>
<g xmlns="http://www.w3.org/2000/svg">
</g>
<g xmlns="http://www.w3.org/2000/svg">
</g>
<g xmlns="http://www.w3.org/2000/svg">
</g>
<g xmlns="http://www.w3.org/2000/svg">
</g>
<g xmlns="http://www.w3.org/2000/svg">
</g>
<g xmlns="http://www.w3.org/2000/svg">
</g>
</g></svg>
