<svg width="626" height="512" viewBox="0 0 626 512" fill="none" xmlns="http://www.w3.org/2000/svg">
<g clip-path="url(#clip0_201_30854)">
<path d="M318.382 406.545L169.222 321.766" stroke="url(#paint0_linear_201_30854)" stroke-width="7.64921" stroke-linecap="round" stroke-linejoin="round"/>
<path d="M300.217 418.222L151.058 333.443" stroke="url(#paint1_linear_201_30854)" stroke-width="7.64921" stroke-linecap="round" stroke-linejoin="round"/>
<path d="M279.458 429.899L130.298 345.12" stroke="url(#paint2_linear_201_30854)" stroke-width="7.64921" stroke-linecap="round" stroke-linejoin="round"/>
<path d="M259.996 440.279L112.085 357.241" stroke="url(#paint3_linear_201_30854)" stroke-width="7.64921" stroke-linecap="round" stroke-linejoin="round"/>
<path d="M235.344 448.064L86.1845 363.285" stroke="url(#paint4_linear_201_30854)" stroke-width="7.64921" stroke-linecap="round" stroke-linejoin="round"/>
<path d="M382.317 461.404L521.552 366.514" stroke="url(#paint5_linear_201_30854)" stroke-width="7.64921" stroke-linecap="round" stroke-linejoin="round"/>
<path d="M381.595 439.359L523.159 345.614" stroke="url(#paint6_linear_201_30854)" stroke-width="7.64921" stroke-linecap="round" stroke-linejoin="round"/>
<path d="M379.73 419.642L526.486 321.223" stroke="url(#paint7_linear_201_30854)" stroke-width="7.64921" stroke-linecap="round" stroke-linejoin="round"/>
<path d="M379.009 397.597L527.502 298.586" stroke="url(#paint8_linear_201_30854)" stroke-width="7.64921" stroke-linecap="round" stroke-linejoin="round"/>
<path d="M377.142 377.881L516.377 282.99" stroke="url(#paint9_linear_201_30854)" stroke-width="7.64921" stroke-linecap="round" stroke-linejoin="round"/>
<path d="M402.032 349.507H226.671V448.338L226.716 448.338C226.716 457.022 238.821 464.01 263.029 477.987C287.237 491.963 299.341 498.952 314.382 498.952C329.424 498.952 341.528 491.963 365.736 477.987C389.944 464.01 402.049 457.022 402.049 448.338C402.049 448.154 402.043 447.972 402.032 447.79V349.507Z" fill="url(#paint10_linear_201_30854)"/>
<path d="M263.029 319.857C287.237 305.881 299.341 298.892 314.382 298.892C329.424 298.892 341.528 305.881 365.736 319.857C389.944 333.834 402.049 340.823 402.049 349.507C402.049 358.191 389.944 365.179 365.736 379.156C341.528 393.132 329.424 400.121 314.382 400.121C299.341 400.121 287.237 393.132 263.029 379.156C238.82 365.179 226.716 358.191 226.716 349.507C226.716 340.823 238.82 333.834 263.029 319.857Z" fill="url(#paint11_linear_201_30854)"/>
<g style="mix-blend-mode:overlay">
<path d="M379.632 436.246C379.632 436.247 379.632 436.247 379.632 436.248C379.632 436.262 379.632 436.276 379.633 436.29C379.633 436.366 379.63 436.441 379.624 436.516C379.615 436.627 379.599 436.737 379.577 436.846C379.521 437.114 379.423 437.375 379.283 437.619C379.147 437.856 378.978 438.067 378.783 438.247C378.681 438.341 378.573 438.426 378.459 438.502C378.395 438.545 378.328 438.586 378.26 438.623C378.26 438.623 378.26 438.623 378.26 438.623L314.818 473.464C314.019 473.903 313.051 473.9 312.255 473.455L249.855 438.615L249.853 438.614C249.842 438.608 249.831 438.602 249.82 438.596L379.632 436.246ZM379.632 436.246L378.072 362.925C378.052 361.99 377.54 361.135 376.725 360.676L314.846 325.837L379.632 436.246ZM312.197 325.863C312.204 325.859 312.21 325.855 312.217 325.852C312.611 325.623 313.064 325.496 313.535 325.495C314.001 325.493 314.45 325.614 314.843 325.835L312.197 325.863ZM312.197 325.863L249.795 362.784C248.99 363.261 248.497 364.126 248.497 365.062L248.497 436.299L312.197 325.863ZM280.025 380.947L282.344 382.222M282.344 382.222L313.545 399.383M282.344 382.222L251.143 436.304M282.344 382.222L313.545 328.141M313.545 399.383L313.545 328.141M313.545 399.383L313.545 436.304M313.545 399.383L251.143 436.304M313.545 399.383L376.986 436.304M313.545 399.383L344.612 381.108M313.545 328.141L344.612 381.108M313.545 436.304L376.986 436.304M313.545 436.304L251.143 436.304M376.986 436.304L344.612 381.108M346.893 379.766L344.612 381.108M248.497 436.304C248.497 436.304 248.497 436.304 248.497 436.304L248.497 436.304Z" stroke="url(#paint12_linear_201_30854)" stroke-width="5.29231" stroke-linejoin="round"/>
<g style="mix-blend-mode:overlay" opacity="0.5">
<path d="M307.256 388.424C311.27 385.444 321.331 380.528 326.377 378.577C326.985 378.341 327.242 377.613 326.902 377.057L315.645 358.619C315.247 357.968 314.302 357.969 313.905 358.62L288.156 400.855C287.505 401.922 289.304 403.296 290.203 402.427C295.614 397.19 301.564 392.227 307.256 388.424Z" fill="white"/>
<path d="M275.496 422.5C274.733 423.274 275.623 424.545 276.645 424.174C283.352 421.741 297.429 417.5 314.044 417.5C331.717 417.5 346.518 422.299 352.633 424.615C353.568 424.969 354.488 423.895 353.976 423.037L336.752 394.128C336.557 393.802 336.197 393.61 335.818 393.636C326.031 394.308 317.114 397.537 309.727 400.122C299.462 404.073 285.017 412.836 275.496 422.5Z" fill="white"/>
<path d="M333.284 390.474C337.017 390.474 340.044 387.68 340.044 384.234C340.044 380.788 337.017 377.994 333.284 377.994C329.55 377.994 326.524 380.788 326.524 384.234C326.524 387.68 329.55 390.474 333.284 390.474Z" fill="white"/>
</g>
</g>
<path d="M182.659 231.942H18.2673V324.589L18.3101 324.589C18.3101 332.73 29.657 339.281 52.3509 352.383C75.0448 365.486 86.3917 372.037 100.492 372.037C114.592 372.037 125.939 365.486 148.633 352.383C171.327 339.281 182.674 332.73 182.674 324.589C182.674 324.417 182.669 324.246 182.659 324.076V231.942Z" fill="#292348"/>
<path d="M52.3508 204.145C75.0447 191.043 86.3916 184.492 100.492 184.492C114.592 184.492 125.939 191.043 148.633 204.145C171.327 217.248 182.674 223.799 182.674 231.94C182.674 240.08 171.327 246.632 148.633 259.734C125.939 272.836 114.592 279.387 100.492 279.387C86.3916 279.387 75.0447 272.836 52.3508 259.734C29.6569 246.632 18.3099 240.08 18.3099 231.94C18.3099 223.799 29.6569 217.248 52.3508 204.145Z" fill="#3D3859"/>
<path d="M608.028 230.637H443.636V323.284L443.679 323.284C443.679 331.425 455.026 337.976 477.72 351.079C500.414 364.181 511.761 370.732 525.861 370.732C539.961 370.732 551.308 364.181 574.002 351.079C596.696 337.976 608.043 331.425 608.043 323.284C608.043 323.113 608.038 322.941 608.028 322.771V230.637Z" fill="#292348"/>
<path d="M477.72 202.841C500.414 189.738 511.761 183.187 525.861 183.187C539.961 183.187 551.308 189.738 574.002 202.841C596.696 215.943 608.043 222.494 608.043 230.635C608.043 238.776 596.696 245.327 574.002 258.429C551.308 271.531 539.961 278.083 525.861 278.083C511.761 278.083 500.414 271.531 477.72 258.429C455.026 245.327 443.679 238.776 443.679 230.635C443.679 222.494 455.026 215.943 477.72 202.841Z" fill="#3D3859"/>
<path fill-rule="evenodd" clip-rule="evenodd" d="M169.699 259.691C172.495 258.077 174.761 259.386 174.761 262.614C174.761 265.842 172.495 269.767 169.699 271.381C166.904 272.995 164.638 271.686 164.638 268.458C164.638 265.23 166.904 261.305 169.699 259.691ZM156.062 269.433C158.857 267.819 161.123 269.127 161.123 272.355C161.123 275.583 158.857 279.508 156.062 281.122C153.266 282.736 151 281.428 151 278.2C151 274.972 153.266 271.047 156.062 269.433Z" fill="url(#paint13_linear_201_30854)"/>
<path fill-rule="evenodd" clip-rule="evenodd" d="M594.699 259.691C597.495 258.077 599.761 259.386 599.761 262.614C599.761 265.842 597.495 269.767 594.699 271.381C591.904 272.995 589.638 271.686 589.638 268.458C589.638 265.23 591.904 261.305 594.699 259.691ZM581.062 269.433C583.857 267.819 586.123 269.127 586.123 272.355C586.123 275.583 583.857 279.508 581.062 281.122C578.266 282.736 576 281.428 576 278.2C576 274.972 578.266 271.047 581.062 269.433Z" fill="url(#paint14_linear_201_30854)"/>
<g opacity="0.4">
<path d="M402.362 60.615H227V159.445L227.046 159.445C227.046 168.129 239.15 175.117 263.358 189.094C287.566 203.071 299.671 210.059 314.712 210.059C329.753 210.059 341.857 203.071 366.065 189.094C390.274 175.117 402.378 168.129 402.378 159.445C402.378 159.262 402.372 159.079 402.362 158.897V60.615Z" fill="url(#paint15_linear_201_30854)"/>
<path d="M263.358 30.965C287.566 16.9883 299.671 10 314.712 10C329.753 10 341.857 16.9883 366.065 30.965C390.274 44.9417 402.378 51.9301 402.378 60.6141C402.378 69.2981 390.274 76.2864 366.065 90.2631C341.857 104.24 329.753 111.228 314.712 111.228C299.671 111.228 287.566 104.24 263.358 90.2631C239.15 76.2864 227.046 69.2981 227.046 60.6141C227.046 51.9301 239.15 44.9417 263.358 30.965Z" fill="url(#paint16_linear_201_30854)"/>
</g>
<g opacity="0.6">
<path d="M402.362 206.615H227V305.445L227.046 305.445C227.046 314.129 239.15 321.117 263.358 335.094C287.566 349.071 299.671 356.059 314.712 356.059C329.753 356.059 341.857 349.071 366.065 335.094C390.274 321.117 402.378 314.129 402.378 305.445C402.378 305.262 402.372 305.079 402.362 304.897V206.615Z" fill="url(#paint17_linear_201_30854)"/>
<path d="M263.358 176.965C287.566 162.988 299.671 156 314.712 156C329.753 156 341.857 162.988 366.065 176.965C390.274 190.942 402.378 197.93 402.378 206.614C402.378 215.298 390.274 222.286 366.065 236.263C341.857 250.24 329.753 257.228 314.712 257.228C299.671 257.228 287.566 250.24 263.358 236.263C239.15 222.286 227.046 215.298 227.046 206.614C227.046 197.93 239.15 190.942 263.358 176.965Z" fill="url(#paint18_linear_201_30854)"/>
</g>
<g style="mix-blend-mode:overlay">
<path d="M356.742 92.25H348.71C346.325 83.0126 341.396 74.6294 334.485 68.053C327.573 61.4766 318.956 56.9707 309.611 55.0473C300.267 53.1238 290.57 53.86 281.623 57.1721C272.677 60.4843 264.838 66.2396 258.999 73.7841C253.159 81.3285 249.553 90.3597 248.59 99.8513C247.627 109.343 249.345 118.914 253.55 127.478C257.755 136.042 264.277 143.254 272.377 148.296C280.476 153.338 289.827 156.007 299.367 156H356.742C365.196 156 373.304 152.642 379.281 146.664C385.259 140.686 388.617 132.579 388.617 124.125C388.617 115.671 385.259 107.564 379.281 101.586C373.304 95.6082 365.196 92.25 356.742 92.25Z" fill="url(#paint19_linear_201_30854)"/>
</g>
</g>
<defs>
<linearGradient id="paint0_linear_201_30854" x1="331.74" y1="394.752" x2="190.92" y2="317.973" gradientUnits="userSpaceOnUse">
<stop stop-color="#EBD2F6"/>
<stop offset="0.32729" stop-color="#8976FF"/>
<stop offset="0.59292" stop-color="#6184FF"/>
<stop offset="0.754381" stop-color="#61A3FF"/>
<stop offset="1" stop-color="#63FFFF"/>
</linearGradient>
<linearGradient id="paint1_linear_201_30854" x1="313.576" y1="406.429" x2="172.756" y2="329.65" gradientUnits="userSpaceOnUse">
<stop stop-color="#EBD2F6"/>
<stop offset="0.32729" stop-color="#8976FF"/>
<stop offset="0.59292" stop-color="#6184FF"/>
<stop offset="0.754381" stop-color="#61A3FF"/>
<stop offset="1" stop-color="#63FFFF"/>
</linearGradient>
<linearGradient id="paint2_linear_201_30854" x1="292.816" y1="418.106" x2="151.996" y2="341.327" gradientUnits="userSpaceOnUse">
<stop stop-color="#EBD2F6"/>
<stop offset="0.32729" stop-color="#8976FF"/>
<stop offset="0.59292" stop-color="#6184FF"/>
<stop offset="0.754381" stop-color="#61A3FF"/>
<stop offset="1" stop-color="#63FFFF"/>
</linearGradient>
<linearGradient id="paint3_linear_201_30854" x1="273.242" y1="428.728" x2="134.397" y2="352.085" gradientUnits="userSpaceOnUse">
<stop stop-color="#EBD2F6"/>
<stop offset="0.32729" stop-color="#8976FF"/>
<stop offset="0.59292" stop-color="#6184FF"/>
<stop offset="0.754381" stop-color="#61A3FF"/>
<stop offset="1" stop-color="#63FFFF"/>
</linearGradient>
<linearGradient id="paint4_linear_201_30854" x1="248.702" y1="436.271" x2="107.883" y2="359.492" gradientUnits="userSpaceOnUse">
<stop stop-color="#EBD2F6"/>
<stop offset="0.32729" stop-color="#8976FF"/>
<stop offset="0.59292" stop-color="#6184FF"/>
<stop offset="0.754381" stop-color="#61A3FF"/>
<stop offset="1" stop-color="#63FFFF"/>
</linearGradient>
<linearGradient id="paint5_linear_201_30854" x1="386.884" y1="478.285" x2="515.738" y2="387.673" gradientUnits="userSpaceOnUse">
<stop stop-color="#EBD2F6"/>
<stop offset="0.32729" stop-color="#8976FF"/>
<stop offset="0.59292" stop-color="#6184FF"/>
<stop offset="0.754381" stop-color="#61A3FF"/>
<stop offset="1" stop-color="#63FFFF"/>
</linearGradient>
<linearGradient id="paint6_linear_201_30854" x1="386.486" y1="456.399" x2="515.053" y2="363.498" gradientUnits="userSpaceOnUse">
<stop stop-color="#EBD2F6"/>
<stop offset="0.32729" stop-color="#8976FF"/>
<stop offset="0.59292" stop-color="#6184FF"/>
<stop offset="0.754381" stop-color="#61A3FF"/>
<stop offset="1" stop-color="#63FFFF"/>
</linearGradient>
<linearGradient id="paint7_linear_201_30854" x1="384.688" y1="437.363" x2="519.082" y2="341.39" gradientUnits="userSpaceOnUse">
<stop stop-color="#EBD2F6"/>
<stop offset="0.32729" stop-color="#8976FF"/>
<stop offset="0.59292" stop-color="#6184FF"/>
<stop offset="0.754381" stop-color="#61A3FF"/>
<stop offset="1" stop-color="#63FFFF"/>
</linearGradient>
<linearGradient id="paint8_linear_201_30854" x1="384.078" y1="415.502" x2="519.548" y2="318.234" gradientUnits="userSpaceOnUse">
<stop stop-color="#EBD2F6"/>
<stop offset="0.32729" stop-color="#8976FF"/>
<stop offset="0.59292" stop-color="#6184FF"/>
<stop offset="0.754381" stop-color="#61A3FF"/>
<stop offset="1" stop-color="#63FFFF"/>
</linearGradient>
<linearGradient id="paint9_linear_201_30854" x1="381.709" y1="394.762" x2="510.564" y2="304.15" gradientUnits="userSpaceOnUse">
<stop stop-color="#EBD2F6"/>
<stop offset="0.32729" stop-color="#8976FF"/>
<stop offset="0.59292" stop-color="#6184FF"/>
<stop offset="0.754381" stop-color="#61A3FF"/>
<stop offset="1" stop-color="#63FFFF"/>
</linearGradient>
<linearGradient id="paint10_linear_201_30854" x1="210.965" y1="370.296" x2="400.667" y2="439.285" gradientUnits="userSpaceOnUse">
<stop stop-color="#EBD2F6"/>
<stop offset="0.32729" stop-color="#8976FF"/>
<stop offset="0.59292" stop-color="#6184FF"/>
<stop offset="0.754381" stop-color="#61A3FF"/>
<stop offset="1" stop-color="#63FFFF"/>
</linearGradient>
<linearGradient id="paint11_linear_201_30854" x1="211.014" y1="312.974" x2="377.722" y2="402.454" gradientUnits="userSpaceOnUse">
<stop stop-color="#EBD2F6"/>
<stop offset="0.32729" stop-color="#8976FF"/>
<stop offset="0.59292" stop-color="#6184FF"/>
<stop offset="0.754381" stop-color="#61A3FF"/>
<stop offset="1" stop-color="#63FFFF"/>
</linearGradient>
<linearGradient id="paint12_linear_201_30854" x1="388.257" y1="451.252" x2="244.8" y2="412.131" gradientUnits="userSpaceOnUse">
<stop stop-color="#EBD2F6"/>
<stop offset="0.32729" stop-color="#8976FF"/>
<stop offset="0.59292" stop-color="#6184FF"/>
<stop offset="0.754381" stop-color="#61A3FF"/>
<stop offset="1" stop-color="#63FFFF"/>
</linearGradient>
<linearGradient id="paint13_linear_201_30854" x1="148.872" y1="262.173" x2="175.228" y2="270.68" gradientUnits="userSpaceOnUse">
<stop stop-color="#EBD2F6"/>
<stop offset="0.32729" stop-color="#8976FF"/>
<stop offset="0.59292" stop-color="#6184FF"/>
<stop offset="0.754381" stop-color="#61A3FF"/>
<stop offset="1" stop-color="#63FFFF"/>
</linearGradient>
<linearGradient id="paint14_linear_201_30854" x1="573.872" y1="262.173" x2="600.228" y2="270.68" gradientUnits="userSpaceOnUse">
<stop stop-color="#EBD2F6"/>
<stop offset="0.32729" stop-color="#8976FF"/>
<stop offset="0.59292" stop-color="#6184FF"/>
<stop offset="0.754381" stop-color="#61A3FF"/>
<stop offset="1" stop-color="#63FFFF"/>
</linearGradient>
<linearGradient id="paint15_linear_201_30854" x1="211.294" y1="81.4032" x2="400.997" y2="150.393" gradientUnits="userSpaceOnUse">
<stop stop-color="#EBD2F6"/>
<stop offset="0.32729" stop-color="#8976FF"/>
<stop offset="0.59292" stop-color="#6184FF"/>
<stop offset="0.754381" stop-color="#61A3FF"/>
<stop offset="1" stop-color="#63FFFF"/>
</linearGradient>
<linearGradient id="paint16_linear_201_30854" x1="211.343" y1="24.0812" x2="378.051" y2="113.562" gradientUnits="userSpaceOnUse">
<stop stop-color="#EBD2F6"/>
<stop offset="0.32729" stop-color="#8976FF"/>
<stop offset="0.59292" stop-color="#6184FF"/>
<stop offset="0.754381" stop-color="#61A3FF"/>
<stop offset="1" stop-color="#63FFFF"/>
</linearGradient>
<linearGradient id="paint17_linear_201_30854" x1="211.294" y1="227.403" x2="400.997" y2="296.393" gradientUnits="userSpaceOnUse">
<stop stop-color="#EBD2F6"/>
<stop offset="0.32729" stop-color="#8976FF"/>
<stop offset="0.59292" stop-color="#6184FF"/>
<stop offset="0.754381" stop-color="#61A3FF"/>
<stop offset="1" stop-color="#63FFFF"/>
</linearGradient>
<linearGradient id="paint18_linear_201_30854" x1="211.343" y1="170.081" x2="378.051" y2="259.562" gradientUnits="userSpaceOnUse">
<stop stop-color="#EBD2F6"/>
<stop offset="0.32729" stop-color="#8976FF"/>
<stop offset="0.59292" stop-color="#6184FF"/>
<stop offset="0.754381" stop-color="#61A3FF"/>
<stop offset="1" stop-color="#63FFFF"/>
</linearGradient>
<linearGradient id="paint19_linear_201_30854" x1="235.766" y1="68.1885" x2="381.168" y2="130.162" gradientUnits="userSpaceOnUse">
<stop stop-color="#EBD2F6"/>
<stop offset="0.32729" stop-color="#8976FF"/>
<stop offset="0.59292" stop-color="#6184FF"/>
<stop offset="0.754381" stop-color="#61A3FF"/>
<stop offset="1" stop-color="#63FFFF"/>
</linearGradient>
<clipPath id="clip0_201_30854">
<rect width="626" height="512" fill="white"/>
</clipPath>
</defs>
</svg>
