<?xml version="1.0"?>
<svg xmlns="http://www.w3.org/2000/svg" xmlns:xlink="http://www.w3.org/1999/xlink" xmlns:svgjs="http://svgjs.com/svgjs" version="1.1" width="512" height="512" x="0" y="0" viewBox="0 0 512 512" style="enable-background:new 0 0 512 512" xml:space="preserve" class=""><circle r="256" cx="256" cy="256" fill="#9f58dd" shape="circle"/><g transform="matrix(0.7,0,0,0.7,76.80014877319337,76.79984893798829)">
<path xmlns="http://www.w3.org/2000/svg" style="" d="M441.412,140.235v338.781c0,18.219-14.778,32.983-32.983,32.983H103.572  c-18.219,0-32.983-14.764-32.983-32.983V32.983C70.588,14.764,85.352,0,103.572,0h197.605L441.412,140.235z" fill="#dbb4ff" data-original="#518ef8" class=""/>
<g xmlns="http://www.w3.org/2000/svg">
	<rect x="161.18" y="257.054" style="" width="189.626" height="21.071" fill="#9f58dd" data-original="#ffffff" class=""/>
	<rect x="161.18" y="304.112" style="" width="189.626" height="21.071" fill="#9f58dd" data-original="#ffffff" class=""/>
	<rect x="161.18" y="351.171" style="" width="189.626" height="21.071" fill="#9f58dd" data-original="#ffffff" class=""/>
	<rect x="161.18" y="398.23" style="" width="134.855" height="21.071" fill="#9f58dd" data-original="#ffffff" class=""/>
</g>
<polygon xmlns="http://www.w3.org/2000/svg" style="" points="320.31,137.188 441.412,187.079 441.412,140.235 372.751,119.962 " fill="#9f58dd" data-original="#3a5bbc" class=""/>
<path xmlns="http://www.w3.org/2000/svg" style="" d="M441.412,140.235H334.16c-18.22,0-32.983-14.764-32.983-32.983V0L441.412,140.235z" fill="#dbb4ff" data-original="#acd1fc" class=""/>
<g xmlns="http://www.w3.org/2000/svg">
</g>
<g xmlns="http://www.w3.org/2000/svg">
</g>
<g xmlns="http://www.w3.org/2000/svg">
</g>
<g xmlns="http://www.w3.org/2000/svg">
</g>
<g xmlns="http://www.w3.org/2000/svg">
</g>
<g xmlns="http://www.w3.org/2000/svg">
</g>
<g xmlns="http://www.w3.org/2000/svg">
</g>
<g xmlns="http://www.w3.org/2000/svg">
</g>
<g xmlns="http://www.w3.org/2000/svg">
</g>
<g xmlns="http://www.w3.org/2000/svg">
</g>
<g xmlns="http://www.w3.org/2000/svg">
</g>
<g xmlns="http://www.w3.org/2000/svg">
</g>
<g xmlns="http://www.w3.org/2000/svg">
</g>
<g xmlns="http://www.w3.org/2000/svg">
</g>
<g xmlns="http://www.w3.org/2000/svg">
</g>
</g></svg>
