<?xml version="1.0"?>
<svg xmlns="http://www.w3.org/2000/svg" xmlns:xlink="http://www.w3.org/1999/xlink" xmlns:svgjs="http://svgjs.com/svgjs" version="1.1" width="512" height="512" x="0" y="0" viewBox="0 0 512 512" style="enable-background:new 0 0 512 512" xml:space="preserve" class=""><g><linearGradient xmlns="http://www.w3.org/2000/svg" id="a" gradientTransform="matrix(1 0 0 -1 0 -18530)" gradientUnits="userSpaceOnUse" x1="0" x2="512" y1="-18786" y2="-18786"><stop stop-opacity="1" stop-color="#d4a1fb" offset="0.24324324324324326"/><stop stop-opacity="1" stop-color="#6c42c0" offset="0.6061776061776062"/></linearGradient><path xmlns="http://www.w3.org/2000/svg" d="m512 256c0 141.386719-114.613281 256-256 256s-256-114.613281-256-256 114.613281-256 256-256 256 114.613281 256 256zm0 0" fill="url(#a)" data-original="url(#a)" class=""/><g xmlns="http://www.w3.org/2000/svg" fill="#fff"><path d="m273.746094 176.371094c0-53.6875-43.679688-97.371094-97.375-97.371094-53.691406 0-97.371094 43.683594-97.371094 97.371094 0 53.691406 43.679688 97.375 97.371094 97.375s97.375-43.683594 97.375-97.375zm-97.375 67.375c-37.148438 0-67.371094-30.222656-67.371094-67.375 0-37.148438 30.222656-67.371094 67.371094-67.371094 37.152344 0 67.375 30.222656 67.375 67.371094 0 37.152344-30.222656 67.375-67.375 67.375zm0 0" fill="#ffffff" data-original="#ffffff" class=""/><path d="m335.628906 238.253906c-53.691406 0-97.375 43.683594-97.375 97.375 0 53.6875 43.683594 97.371094 97.375 97.371094s97.371094-43.683594 97.371094-97.371094c0-53.691406-43.679688-97.375-97.371094-97.375zm0 164.746094c-37.152344 0-67.375-30.222656-67.375-67.371094 0-37.152344 30.222656-67.375 67.375-67.375 37.148438 0 67.371094 30.222656 67.371094 67.375 0 37.148438-30.222656 67.371094-67.371094 67.371094zm0 0" fill="#ffffff" data-original="#ffffff" class=""/><path d="m210.695312 161.371094h-19.324218v-19.320313c0-8.285156-6.714844-15-15-15-8.28125 0-15 6.714844-15 15v19.320313h-19.320313c-8.285156 0-15 6.71875-15 15 0 8.285156 6.714844 15 15 15h19.320313v19.324218c0 8.285157 6.71875 15 15 15 8.285156 0 15-6.714843 15-15v-19.324218h19.324218c8.285157 0 15-6.714844 15-15 0-8.28125-6.714843-15-15-15zm0 0" fill="#ffffff" data-original="#ffffff" class=""/><path d="m369.949219 320.628906h-68.644531c-8.285157 0-15 6.714844-15 15 0 8.28125 6.714843 15 15 15h68.644531c8.285156 0 15-6.71875 15-15 0-8.285156-6.714844-15-15-15zm0 0" fill="#ffffff" data-original="#ffffff" class=""/></g></g></svg>
