<?xml version="1.0"?>
<svg xmlns="http://www.w3.org/2000/svg" xmlns:xlink="http://www.w3.org/1999/xlink" xmlns:svgjs="http://svgjs.com/svgjs" version="1.1" width="512" height="512" x="0" y="0" viewBox="0 0 512 512" style="enable-background:new 0 0 512 512" xml:space="preserve" class=""><circle r="256" cx="256" cy="256" fill="#6c42c0" shape="circle"/><g transform="matrix(0.9,0,0,0.8999999999999998,25.599999999999994,25.60000000000005)"><path xmlns="http://www.w3.org/2000/svg" d="m197.160156 82.21875-55.835937-64.195312c-5.816407-6.6875-14.226563-10.523438-23.066407-10.523438-8.84375 0-17.253906 3.835938-23.070312 10.523438l-55.835938 64.195312c-11.125 12.789062-9.738281 32.121094 2.925782 43.378906 20.777344 18.464844 45.351562-5.398437 45.351562-5.398437v239.972656h61.253906v-239.972656s24.632813 24.113281 45.351563 5.398437c12.570313-11.359375 14.050781-30.589844 2.925781-43.378906zm0 0" fill="#a890fe" data-original="#b0f0ef" class=""/><path xmlns="http://www.w3.org/2000/svg" d="m148.867188 236.09375c-23.664063-3.863281-45.382813-3.503906-61.253907-2.160156v126.238281h61.253907zm0 0" fill="#000000" data-original="#76e7e7" class=""/><path xmlns="http://www.w3.org/2000/svg" d="m228.980469 393.335938c0-61.394532-49.582031-111.164063-110.742188-111.164063-61.160156 0-110.738281 49.769531-110.738281 111.164063 0 61.394531 49.578125 111.164062 110.738281 111.164062 61.160157 0 110.742188-49.769531 110.742188-111.164062zm0 0" fill="#a890fe" data-original="#60daa8" class=""/><path xmlns="http://www.w3.org/2000/svg" d="m64.695312 393.335938c0-51.46875 34.859376-94.765626 82.15625-107.421876-9.125-2.441406-18.722656-3.746093-28.613281-3.746093-61.160156 0-110.738281 49.773437-110.738281 111.167969 0 61.394531 49.578125 111.164062 110.742188 111.164062 9.890624 0 19.488281-1.304688 28.609374-3.746094-47.296874-12.65625-82.15625-55.953125-82.15625-107.417968zm0 0" fill="#8d65df" data-original="#00ce8e" class=""/><path xmlns="http://www.w3.org/2000/svg" d="m161.949219 374.070312h-24.519531v-24.609374c0-10.640626-8.589844-19.265626-19.1875-19.265626-10.597657 0-19.191407 8.625-19.191407 19.265626v24.609374h-24.519531c-10.597656 0-19.1875 8.625-19.1875 19.265626 0 10.636718 8.589844 19.261718 19.1875 19.261718h24.519531v24.613282c0 10.636718 8.589844 19.261718 19.1875 19.261718 10.601563 0 19.191407-8.621094 19.191407-19.261718v-24.613282h24.519531c10.597656 0 19.1875-8.625 19.1875-19.261718 0-10.640626-8.589844-19.265626-19.1875-19.265626zm0 0" fill="#000000" data-original="#fffcdc" class=""/><path xmlns="http://www.w3.org/2000/svg" d="m472.679688 429.78125-55.835938 64.195312c-5.816406 6.6875-14.226562 10.523438-23.070312 10.523438-8.839844 0-17.25-3.835938-23.070313-10.523438l-55.832031-64.195312c-11.125-12.789062-9.738282-32.121094 2.925781-43.378906 20.773437-18.464844 45.351563 5.398437 45.351563 5.398437v-239.972656h61.253906v239.972656s24.628906-24.113281 45.351562-5.398437c12.570313 11.359375 14.050782 30.589844 2.925782 43.378906zm0 0" fill="#a890fe" data-original="#b0f0ef" class=""/><path xmlns="http://www.w3.org/2000/svg" d="m424.386719 275.90625c-23.664063 3.863281-45.382813 3.503906-61.253907 2.160156v-126.238281h61.253907zm0 0" fill="#000000" data-original="#76e7e7" class=""/><path xmlns="http://www.w3.org/2000/svg" d="m504.5 118.664062c0-61.394531-49.578125-111.164062-110.738281-111.164062-61.160157 0-110.742188 49.769531-110.742188 111.164062 0 61.394532 49.582031 111.164063 110.742188 111.164063 61.160156 0 110.738281-49.769531 110.738281-111.164063zm0 0" fill="#a890fe" data-original="#ff8a98" class=""/><path xmlns="http://www.w3.org/2000/svg" d="m340.214844 118.664062c0-51.464843 34.863281-94.761718 82.164062-107.417968-9.125-2.441406-18.730468-3.746094-28.617187-3.746094-61.160157 0-110.742188 49.769531-110.742188 111.164062 0 61.394532 49.578125 111.167969 110.742188 111.167969 9.886719 0 19.488281-1.304687 28.613281-3.746093-47.300781-12.660157-82.160156-55.953126-82.160156-107.421876zm0 0" fill="#8d65df" data-original="#fd5c6f" class=""/><path xmlns="http://www.w3.org/2000/svg" d="m330.863281 118.628906v.074219c0 10.617187 8.605469 19.226563 19.226563 19.226563h87.339844c10.621093 0 19.226562-8.609376 19.226562-19.226563v-.074219c0-10.617187-8.605469-19.226562-19.226562-19.226562h-87.339844c-10.621094 0-19.226563 8.609375-19.226563 19.226562zm0 0" fill="#000000" data-original="#fffcdc" class=""/><path xmlns="http://www.w3.org/2000/svg" d="m474.78125 380.839844c-14.335938-12.953125-30.773438-9.984375-42.882812-3.589844v-146.257812c46.542968-15.957032 80.101562-60.28125 80.101562-112.328126 0-65.433593-53.042969-118.664062-118.238281-118.664062-65.199219 0-118.242188 53.230469-118.242188 118.664062 0 65.433594 53.042969 118.667969 118.242188 118.667969 7.917969 0 15.652343-.792969 23.140625-2.289062v156.757812c0 3.019531 1.808594 5.746094 4.589844 6.914063 2.785156 1.171875 6 .558594 8.15625-1.554688.050781-.050781 5.339843-5.117187 12.574218-8.167968 8.8125-3.714844 16.171875-2.742188 22.503906 2.976562 9.703126 8.769531 10.710938 23.214844 2.292969 32.890625l-55.832031 64.195313c-4.394531 5.050781-10.738281 7.945312-17.414062 7.945312-6.671876 0-13.015626-2.898438-17.410157-7.945312l-55.832031-64.195313c-8.347656-9.59375-7.335938-24.328125 2.25-32.847656 15.257812-13.566407 34.355469 4.414062 35.144531 5.171875 2.160157 2.097656 5.367188 2.699218 8.144531 1.527344 2.773438-1.175782 4.578126-3.894532 4.578126-6.910157v-133.90625c0-4.144531-3.355469-7.5-7.5-7.5-4.140626 0-7.5 3.355469-7.5 7.5v119.425781c-12.078126-6.324218-28.484376-9.277343-42.832032 3.480469-15.703125 13.957031-17.320312 38.136719-3.605468 53.902344l55.835937 64.195313c7.242187 8.328124 17.714844 13.101562 28.726563 13.101562 11.015624 0 21.488281-4.773438 28.730468-13.101562l55.835938-64.195313c13.832031-15.902344 12.269531-39.5625-3.558594-53.863281zm-184.261719-262.175782c0-57.160156 46.3125-103.664062 103.242188-103.664062 56.925781 0 103.238281 46.503906 103.238281 103.664062 0 57.164063-46.3125 103.667969-103.238281 103.667969-56.929688 0-103.242188-46.503906-103.242188-103.667969zm0 0" fill="#000000" data-original="#000000" class=""/><path xmlns="http://www.w3.org/2000/svg" d="m156.382812 281.007812v-146.257812c12.105469 6.390625 28.542969 9.359375 42.878907-3.589844 15.828125-14.300781 17.390625-37.960937 3.558593-53.863281l-55.835937-64.195313c-7.242187-8.328124-17.714844-13.101562-28.726563-13.101562-11.019531 0-21.488281 4.773438-28.730468 13.101562l-55.835938 64.195313c-13.714844 15.765625-12.097656 39.945313 3.605469 53.902344 14.347656 12.753906 30.753906 9.804687 42.832031 3.480469v146.316406c-46.554687 15.949218-80.128906 60.28125-80.128906 112.339844 0 26.875 8.730469 52.222656 25.253906 73.304687 2.554688 3.257813 7.269532 3.832031 10.527344 1.273437 3.261719-2.554687 3.832031-7.265624 1.277344-10.527343-14.429688-18.414063-22.058594-40.5625-22.058594-64.050781 0-57.164063 46.3125-103.667969 103.238281-103.667969 56.929688 0 103.242188 46.503906 103.242188 103.667969 0 57.160156-46.3125 103.664062-103.242188 103.664062-21.300781 0-41.746093-6.457031-59.128906-18.675781-3.386719-2.382813-8.066406-1.566407-10.449219 1.820312-2.378906 3.390625-1.5625 8.070313 1.824219 10.449219 19.921875 14.003906 43.351563 21.40625 67.753906 21.40625 65.199219 0 118.242188-53.230469 118.242188-118.664062 0-52.046876-33.558594-96.371094-80.097657-112.328126zm-61.253906-4.058593v-156.75c0-3.015625-1.804687-5.734375-4.578125-6.910157-2.777343-1.175781-5.984375-.570312-8.144531 1.527344-.054688.050782-5.328125 5.0625-12.558594 8.085938-8.832031 3.699218-16.222656 2.746094-22.585937-2.914063-9.585938-8.519531-10.597657-23.253906-2.253907-32.847656l55.835938-64.195313c4.390625-5.050781 10.738281-7.945312 17.414062-7.945312 6.671876 0 13.015626 2.894531 17.410157 7.945312l55.835937 64.195313c8.414063 9.675781 7.40625 24.121094-2.296875 32.890625-15.1875 13.714844-34.289062-4.429688-35.078125-5.191406-2.15625-2.109375-5.371094-2.726563-8.152344-1.554688-2.785156 1.167969-4.59375 3.894532-4.59375 6.914063v156.757812c-7.488281-1.496093-15.222656-2.289062-23.144531-2.289062-7.90625 0-15.632812.789062-23.109375 2.28125zm0 0" fill="#000000" data-original="#000000" class=""/><path xmlns="http://www.w3.org/2000/svg" d="m118.238281 322.695312c-14.714843 0-26.6875 12.003907-26.6875 26.761719v17.113281h-17.019531c-14.714844 0-26.6875 12.007813-26.6875 26.765626 0 14.757812 11.972656 26.761718 26.6875 26.761718h17.019531v17.113282c0 14.757812 11.972657 26.761718 26.6875 26.761718 14.71875 0 26.691407-12.003906 26.691407-26.761718v-17.113282h17.019531c14.714843 0 26.6875-12.003906 26.6875-26.761718 0-14.757813-11.972657-26.765626-26.6875-26.765626h-17.019531v-17.113281c0-14.757812-11.972657-26.761719-26.691407-26.761719zm43.710938 58.875c6.445312 0 11.6875 5.277344 11.6875 11.765626 0 6.484374-5.242188 11.761718-11.6875 11.761718h-24.519531c-4.144532 0-7.5 3.355469-7.5 7.5v24.613282c0 6.484374-5.246094 11.761718-11.691407 11.761718-6.445312 0-11.6875-5.273437-11.6875-11.761718v-24.613282c0-4.144531-3.359375-7.5-7.5-7.5h-24.519531c-6.445312 0-11.6875-5.277344-11.6875-11.761718 0-6.488282 5.242188-11.765626 11.6875-11.765626h24.519531c4.140625 0 7.5-3.355468 7.5-7.5v-24.613281c0-6.484375 5.242188-11.761719 11.6875-11.761719 6.445313 0 11.691407 5.277344 11.691407 11.761719v24.613281c0 4.144532 3.355468 7.5 7.5 7.5zm0 0" fill="#000000" data-original="#000000" class=""/><path xmlns="http://www.w3.org/2000/svg" d="m437.429688 91.902344h-87.339844c-14.738282 0-26.726563 11.988281-26.726563 26.800781 0 14.734375 11.988281 26.726563 26.726563 26.726563h56.136718c4.140626 0 7.5-3.359376 7.5-7.5 0-4.144532-3.359374-7.5-7.5-7.5h-56.136718c-6.46875 0-11.726563-5.261719-11.726563-11.800782 0-6.464844 5.257813-11.726562 11.726563-11.726562h87.339844c6.46875 0 11.726562 5.261718 11.726562 11.800781 0 6.464844-5.257812 11.726563-11.726562 11.726563-4.140626 0-7.5 3.355468-7.5 7.5 0 4.140624 3.359374 7.5 7.5 7.5 14.738281 0 26.726562-11.992188 26.726562-26.800782 0-14.738281-11.988281-26.726562-26.726562-26.726562zm0 0" fill="#000000" data-original="#000000" class=""/></g></svg>
