<?xml version="1.0"?>
<svg xmlns="http://www.w3.org/2000/svg" xmlns:xlink="http://www.w3.org/1999/xlink" xmlns:svgjs="http://svgjs.com/svgjs" version="1.1" width="512" height="512" x="0" y="0" viewBox="0 0 511.997 511" style="enable-background:new 0 0 512 512" xml:space="preserve" class=""><g><path xmlns="http://www.w3.org/2000/svg" d="m105.832031 471.152344v-177.296875h-79.222656c-5.246094 0-9.496094 4.300781-9.496094 9.601562v186.699219c26.074219-3.898438 56.15625-9.875 88.71875-19.003906zm0 0" fill="#cdb3ff" data-original="#acd6fc" class=""/><path xmlns="http://www.w3.org/2000/svg" d="m47.113281 303.457031c0-5.300781 4.253907-9.601562 9.496094-9.601562h-30c-5.246094 0-9.496094 4.300781-9.496094 9.601562v186.699219c9.492188-1.417969 19.519531-3.117188 30-5.140625zm0 0" fill="#8209d8" data-original="#8ac2ff" class=""/><path xmlns="http://www.w3.org/2000/svg" d="m193.546875 439.816406v-241.242187h-79.222656c-5.242188 0-9.492188 4.300781-9.492188 9.601562v262.976563c28.070313-7.871094 57.976563-18.09375 88.714844-31.335938zm0 0" fill="#8209d8" data-original="#8ac2ff" class=""/><path xmlns="http://www.w3.org/2000/svg" d="m134.832031 208.175781c0-5.300781 4.25-9.601562 9.496094-9.601562h-30.003906c-5.242188 0-9.492188 4.300781-9.492188 9.601562v262.976563c9.789063-2.746094 19.804688-5.785156 30-9.128906zm0 0" fill="#cdb3ff" data-original="#54a0ff" class=""/><path xmlns="http://www.w3.org/2000/svg" d="m281.265625 393.464844v-290.171875h-79.222656c-5.242188 0-9.496094 4.300781-9.496094 9.601562v326.921875c29.109375-12.539062 58.960937-27.796875 88.71875-46.351562zm0 0" fill="#cdb3ff" data-original="#54a0ff" class=""/><path xmlns="http://www.w3.org/2000/svg" d="m222.550781 112.894531c0-5.300781 4.25-9.601562 9.496094-9.601562h-30.003906c-5.242188 0-9.496094 4.300781-9.496094 9.601562v326.921875c9.925781-4.277344 19.9375-8.875 30.003906-13.804687zm0 0" fill="#cdb3ff" data-original="#338def" class=""/><path xmlns="http://www.w3.org/2000/svg" d="m368.980469 326.792969v-309.179688c0-5.304687-4.25-9.601562-9.492188-9.601562h-69.730469c-5.242187 0-9.492187 4.296875-9.492187 9.601562v375.851563c29.960937-18.679688 59.820313-40.703125 88.714844-66.671875zm0 0" fill="#cdb3ff" data-original="#338def" class=""/><path xmlns="http://www.w3.org/2000/svg" d="m310.265625 17.613281c0-5.304687 4.253906-9.601562 9.496094-9.601562h-30c-5.246094 0-9.496094 4.296875-9.496094 9.601562v375.851563c10.023437-6.25 20.03125-12.882813 30-19.902344zm0 0" fill="#8209d8" data-original="#2388e2" class=""/><path xmlns="http://www.w3.org/2000/svg" d="m501.515625 226.355469h-99.007813c-2.960937 0-4.46875 3.558593-2.414062 5.683593l26.894531 27.828126c1.207031 1.25 1.261719 3.21875.125 4.535156-135.335937 156.171875-309.378906 205.445312-415.21875 220.78125-2.3125.332031-4.023437 2.320312-4.023437 4.660156 0 2.664062 2.210937 4.8125 4.875 4.714844 268.539062-9.574219 435.0625-162.855469 456.054687-183.238282 1.28125-1.242187 3.304688-1.257812 4.613281-.046874l25.820313 23.957031c2.144531 1.992187 5.632813.46875 5.632813-2.457031v-103.0625c0-1.851563-1.5-3.355469-3.351563-3.355469zm0 0" fill="#cdb3ff" data-original="#feca57" class=""/><path xmlns="http://www.w3.org/2000/svg" d="m51.515625 489.84375c0-2.339844 1.710937-4.324219 4.023437-4.660156 105.839844-15.335938 279.882813-64.609375 415.21875-220.78125 1.136719-1.316406 1.082032-3.285156-.125-4.535156l-26.894531-27.828126c-2.054687-2.125-.546875-5.683593 2.410157-5.683593h-43.644532c-2.957031 0-4.46875 3.558593-2.410156 5.683593l26.894531 27.828126c1.207031 1.25 1.261719 3.21875.125 4.535156-135.335937 156.171875-309.378906 205.445312-415.21875 220.78125-2.3125.332031-4.023437 2.320312-4.023437 4.660156 0 2.664062 2.210937 4.8125 4.875 4.714844 13.375-.476563 26.488281-1.324219 39.355468-2.480469-.363281-.667969-.585937-1.421875-.585937-2.234375zm0 0" fill="#8209d8" data-original="#f4b537" class=""/><path xmlns="http://www.w3.org/2000/svg" d="m12.214844 502.050781c.144531 0 .285156-.003906.429687-.007812 90.722657-3.234375 179.183594-23.050781 262.921875-58.902344 3.808594-1.628906 5.574219-6.039063 3.945313-9.847656-1.632813-3.808594-6.042969-5.570313-9.847657-3.941407-66.039062 28.269532-135.070312 46.363282-205.839843 53.996094 143.796875-31.167968 272.855469-103.574218 368.589843-214.050781 3.707032-4.28125 3.535157-10.582031-.402343-14.65625l-20.101563-20.796875h85.089844v89.414062l-18.855469-17.496093c-4.234375-3.925781-10.796875-3.855469-14.9375.164062-10.441406 10.136719-67.300781 63.015625-161.707031 108.890625-3.726562 1.808594-5.277344 6.296875-3.46875 10.023438 1.8125 3.722656 6.296875 5.277344 10.027344 3.464844 89.894531-43.679688 146.734375-93.832032 162.742187-108.890626l22.960938 21.300782c6.9375 6.4375 18.234375 1.488281 18.234375-7.957032v-103.058593c0-5.984375-4.867188-10.855469-10.855469-10.855469h-99.007813c-9.570312 0-14.441406 11.53125-7.804687 18.398438l24.253906 25.09375c-13.804687 15.742187-27.996093 30.378906-42.472656 44v-114.164063c0-4.140625-3.355469-7.5-7.5-7.5s-7.5 3.359375-7.5 7.5v127.71875c-23.015625 20.226563-47.753906 38.921875-73.71875 55.710937 0-2.574218 0-353.496093 0-358.109374 0-1.097657.898437-1.992188 1.996094-1.992188h69.726562c1.101563 0 1.996094.894531 1.996094 1.992188v139.679687c0 4.140625 3.355469 7.5 7.5 7.5s7.5-3.359375 7.5-7.5v-139.675781c0-9.375-7.625-16.996094-16.996094-16.996094h-69.726562c-9.371094 0-16.996094 7.621094-16.996094 16.996094v77.234375h-71.722656c-9.371094 0-16.992188 7.625-16.992188 16.996093v77.238282h-71.722656c-9.371094 0-16.996094 7.625-16.996094 16.996094v77.238281h-71.71875c-9.371093 0-16.996093 7.625-16.996093 16.996093v178.996094c-3.742188 2.117188-6.242188 6.144532-6.242188 10.640625 0 6.703125 5.449219 12.21875 12.214844 12.21875zm186.464844-390.324219c0-1.097656.894531-1.992187 1.992187-1.992187h71.722656v275.273437c-23.453125 14.253907-48.191406 27.199219-73.714843 38.589844 0-6.195312 0-304.550781 0-311.871094zm-88.71875 94.234376c0-1.101563.894531-1.996094 1.996093-1.996094h71.722657v226.109375c-23.824219 9.945312-48.5625 18.679687-73.71875 26.03125 0-7.039063 0-243.140625 0-250.144531zm-88.71875 94.234374c0-1.101562.894531-1.996093 1.996093-1.996093h71.722657v162.113281c-24.234376 6.515625-48.964844 11.808594-73.71875 15.78125zm0 0" fill="#000000" data-original="#000000" class=""/></g></svg>
