<?xml version="1.0"?>
<svg xmlns="http://www.w3.org/2000/svg" xmlns:xlink="http://www.w3.org/1999/xlink" xmlns:svgjs="http://svgjs.com/svgjs" version="1.1" width="512" height="512" x="0" y="0" viewBox="0 0 60 60" style="enable-background:new 0 0 512 512" xml:space="preserve" class=""><circle r="30" cx="30" cy="30" fill="#6c42c0" shape="circle"/><g transform="matrix(0.9,0,0,0.8999999999999999,3.000006920099242,3.0000504314899423)"><g xmlns="http://www.w3.org/2000/svg" id="Page-1" fill="none" fill-rule="evenodd"><g id="015---Financial-Profit" transform="translate(-1)"><path id="Path" d="m60 2.273-.5 6.442c-.0395612.54260518-.392044 1.0122522-.9019958 1.20181656-.5099518.18956434-1.0836199.06419536-1.4680042-.32081656l-1.45-1.451-9.642 9.655c-1.5637124 1.5602187-4.0952876 1.5602187-5.659 0l-4.463-4.465c-.3904999-.3903819-1.0235001-.3903819-1.414 0l-14.671 14.677c-.750273.7511082-1.768363 1.1731466-2.83 1.1731466s-2.079727-.4220384-2.83-1.1731466l-2.463-2.464c-.3903851-.3897159-1.0226149-.3897159-1.413 0l-4.883 4.875c-.78252302.7694891-2.03747698.7694891-2.82 0-.37849763-.3717318-.59171348-.8799861-.59171348-1.4105s.21321585-1.0387682.59171348-1.4105l5.58-5.592c.75023257-.7508021 1.76810816-1.1726462 2.8295-1.1726462 1.0613918 0 2.0792674.4218441 2.8295 1.1726462l3.169 3.171 15.38-15.381c.7502326-.75080205 1.7681082-1.17264616 2.8295-1.17264616s2.0792674.42184411 2.8295 1.17264616l4.461 4.46c.1875683.187777.4420908.2932867.7075.2932867s.5199317-.1055097.7075-.2932867l8.942-8.946-1.45-1.45c-.3834925-.38332842-.5080245-.95518745-.3186513-1.46326711.1893732-.50807965.6578178-.85892241 1.1986513-.89773289l6.45-.503c.3430962-.02230961.6790523.10499135.9212097.34906611.2421574.24407475.366805.58102432.3417903.92393389z" fill="#000000" data-original="#ef314c" class=""/><path id="Path" d="m58.737 1-2.3.178c.3764131.23216198.5931905.65378064.563 1.095l-.5 6.442c-.0096514.06784727-.0250399.13475372-.046.2l.676.677c.3843843.38501192.9580524.5103809 1.4680042.32081656.5099518-.18956436.8624346-.65921138.9019958-1.20181656l.5-6.438c.0250147-.34290957-.0996329-.67985914-.3417903-.92393389-.2421574-.24407476-.5781135-.37137572-.9212097-.34906611z" fill="#000000" data-original="#bb193b" class=""/><rect id="Rectangle" fill="#a890fe" height="4" rx="2" width="16" x="3" y="55" data-original="#ffdc00" class=""/><path id="Path" d="m17 55h-3c1.1045695 0 2 .8954305 2 2s-.8954305 2-2 2h3c1.1045695 0 2-.8954305 2-2s-.8954305-2-2-2z" fill="#8d65df" data-original="#fec108" class=""/><path id="Path" d="m39 53c0-1.1045695-.8954305-2-2-2 1.1045695 0 2-.8954305 2-2s-.8954305-2-2-2h-12c-1.1045695 0-2 .8954305-2 2s.8954305 2 2 2c-1.1045695 0-2 .8954305-2 2s.8954305 2 2 2c-1.1045695 0-2 .8954305-2 2s.8954305 2 2 2h12c1.1045695 0 2-.8954305 2-2s-.8954305-2-2-2c1.1045695 0 2-.8954305 2-2z" fill="#a890fe" data-original="#ffdc00" class=""/><path id="Path" d="m39 53c0-1.1045695-.8954305-2-2-2 1.1045695 0 2-.8954305 2-2s-.8954305-2-2-2h-3c1.1045695 0 2 .8954305 2 2s-.8954305 2-2 2c1.1045695 0 2 .8954305 2 2s-.8954305 2-2 2c1.1045695 0 2 .8954305 2 2s-.8954305 2-2 2h3c1.1045695 0 2-.8954305 2-2s-.8954305-2-2-2c1.1045695 0 2-.8954305 2-2z" fill="#8d65df" data-original="#fec108" class=""/><circle id="Oval" cx="31" cy="38" fill="#a890fe" r="9" data-original="#ffdc00" class=""/><path id="Path" d="m31 29c-.5028835.0032224-1.0046224.0483789-1.5.135 4.3297277.7267089 7.5010833 4.4747098 7.5010833 8.865s-3.1713556 8.1382911-7.5010833 8.865c3.3570875.5877651 6.7581917-.7711782 8.7859125-3.5104942 2.0277208-2.7393161 2.334161-6.389019.7916126-9.4281058-1.5425485-3.0390868-4.6694296-4.9461397-8.0775251-4.9264z" fill="#8d65df" data-original="#fec108" class=""/><path id="Path" d="m59 45c0-1.1045695-.8954305-2-2-2 1.1045695 0 2-.8954305 2-2s-.8954305-2-2-2h-12c-1.1045695 0-2 .8954305-2 2s.8954305 2 2 2c-1.1045695 0-2 .8954305-2 2s.8954305 2 2 2c-1.1045695 0-2 .8954305-2 2s.8954305 2 2 2c-1.1045695 0-2 .8954305-2 2s.8954305 2 2 2c-1.1045695 0-2 .8954305-2 2s.8954305 2 2 2h12c1.1045695 0 2-.8954305 2-2s-.8954305-2-2-2c1.1045695 0 2-.8954305 2-2s-.8954305-2-2-2c1.1045695 0 2-.8954305 2-2s-.8954305-2-2-2c1.1045695 0 2-.8954305 2-2z" fill="#a890fe" data-original="#ffdc00" class=""/><path id="Path" d="m59 45c0-1.1045695-.8954305-2-2-2 1.1045695 0 2-.8954305 2-2s-.8954305-2-2-2h-3c1.1045695 0 2 .8954305 2 2s-.8954305 2-2 2c1.1045695 0 2 .8954305 2 2s-.8954305 2-2 2c1.1045695 0 2 .8954305 2 2s-.8954305 2-2 2c1.1045695 0 2 .8954305 2 2s-.8954305 2-2 2c1.1045695 0 2 .8954305 2 2s-.8954305 2-2 2h3c1.1045695 0 2-.8954305 2-2s-.8954305-2-2-2c1.1045695 0 2-.8954305 2-2s-.8954305-2-2-2c1.1045695 0 2-.8954305 2-2s-.8954305-2-2-2c1.1045695 0 2-.8954305 2-2z" fill="#8d65df" data-original="#fec108" class=""/><circle id="Oval" cx="51" cy="30" fill="#a890fe" r="9" data-original="#ffdc00" class=""/><path id="Path" d="m51 21c-.5028835.0032224-1.0046224.0483789-1.5.135 4.3297277.7267089 7.5010833 4.4747098 7.5010833 8.865s-3.1713556 8.1382911-7.5010833 8.865c3.3570875.5877651 6.7581917-.7711782 8.7859125-3.5104942 2.0277208-2.7393161 2.334161-6.389019.7916126-9.4281058-1.5425485-3.0390868-4.6694296-4.9461397-8.0775251-4.9264z" fill="#8d65df" data-original="#fec108" class=""/><circle id="Oval" cx="11" cy="46" fill="#a890fe" r="9" data-original="#ffdc00" class=""/><path id="Path" d="m11 37c-.5028835.0032224-1.00462236.0483789-1.5.135 4.3297277.7267089 7.5010833 4.4747098 7.5010833 8.865s-3.1713556 8.1382911-7.5010833 8.865c3.3570875.5877651 6.7581917-.7711782 8.7859125-3.5104942 2.0277208-2.7393161 2.334161-6.389019.7916126-9.4281058-1.5425485-3.0390868-4.6694296-4.9461397-8.0775251-4.9264z" fill="#8d65df" data-original="#fec108" class=""/><g fill="#000"><path id="Shape" d="m4 32c.79577467.0012866 1.55932329-.3142799 2.122-.877.078-.078 4.878-4.869 4.878-4.869l2.463 2.465c.9378008.9385791 2.2101989 1.4659328 3.537 1.4659328s2.5991992-.5273537 3.537-1.4659328l14.672-14.677 4.462 4.464c1.9546706 1.9513803 5.1203294 1.9513803 7.075 0l8.932-8.944.742.742c.6608092.6601334 1.6455231.8750289 2.5212772.5502217s1.4821879-1.12984112 1.5527228-2.0612217l.5-6.441v-.01c.0433383-.63148331-.1885393-1.25085316-.6359241-1.69862125-.4473847-.4477681-1.0665557-.68017611-1.6980759-.63737875l-6.447.5c-.9310933.06659148-1.7375694.67069071-2.0632563 1.54550337-.3256869.87481267-.1106053 1.85923101.5502563 2.51849663l.742.744-8.235 8.239-4.461-4.464c-.9378008-.93857909-2.2101989-1.4659328-3.537-1.4659328s-2.5991992.52735371-3.537 1.4659328l-14.672 14.678-2.461-2.467c-1.9544427-1.9519312-5.12055733-1.9519312-7.075 0l-5.575 5.59c-.85677817.8548861-1.11412113 2.1417535-.65200028 3.2603881.46212086 1.1186346 1.55267053 1.848672 2.76300028 1.8496119zm-.7-3.7 5.579-5.591c.56270477-.5633311 1.3262723-.87986 2.1225-.87986s1.5597952.3165289 2.1225.87986l3.169 3.171c.1875683.187777.4420908.2932867.7075.2932867s.5199317-.1055097.7075-.2932867l15.378-15.38c1.1877886-1.13499192 3.0582114-1.13499192 4.246 0l4.462 4.464c.7915033.7559402 2.0374967.7559402 2.829 0l8.941-8.946c.3897159-.39038508.3897159-1.02261492 0-1.413l-1.453-1.453c-.1098877-.10196743-.1446082-.26160221-.087-.4.0504282-.14702489.1857164-.24819349.341-.255l6.443-.497c.0503817-.00227013.0992699.01743106.134.054.0396017.03794569.0607667.09122302.058.146l-.5 6.44c-.0109353.15255225-.1098131.28472349-.2530717.33828414-.1432586.05356064-.3045941.01867637-.4129283-.08928414l-1.449-1.451c-.3970303-.37525184-1.0179697-.37525184-1.415 0l-9.639 9.653c-1.1886762 1.1318096-3.0563238 1.1318096-4.245 0l-4.462-4.464c-.3743118-.3768369-.883856-.5882167-1.415-.587-.5302405-.0006139-1.0388223.2103053-1.413.586l-14.672 14.679c-1.1879933 1.1344813-3.0580067 1.1344813-4.246 0l-2.463-2.465c-.7808851-.7800976-2.0461149-.7800976-2.827 0l-4.883 4.875c-.3918074.3834085-1.0181926.3834085-1.41 0-.18914619-.183777-.2958706-.4362762-.2958706-.7s.10672441-.516223.2958706-.7z" fill-rule="nonzero" fill="#000000" data-original="#000000" class=""/><path id="Shape" d="m41 38c.0087943-4.7088273-3.2686668-8.7858034-7.8693834-9.7890675s-9.278011 1.339043-11.2304683 5.6240217-.651011 9.3515084 3.1248517 12.1650458h-.025c-1.1856144-.005247-2.2620981.691231-2.7432243 1.7748484-.4811261 1.0836175-.2758048 2.3492169.5232243 3.2251516-1.0400491 1.1305142-1.0400491 2.8694858 0 4-.7990291.8759347-1.0043504 2.1415341-.5232243 3.2251516.4811262 1.0836174 1.5576099 1.7800954 2.7432243 1.7748484h12c1.1856144.005247 2.2620981-.691231 2.7432243-1.7748484.4811261-1.0836175.2758048-2.3492169-.5232243-3.2251516 1.0400491-1.1305142 1.0400491-2.8694858 0-4 .7990291-.8759347 1.0043504-2.1415341.5232243-3.2251516-.4811262-1.0836174-1.5576099-1.7800954-2.7432243-1.7748484h-.025c2.5297227-1.8814233 4.0219515-4.8473438 4.025-8zm-3 15c0 .5522847-.4477153 1-1 1h-12c-.5522847 0-1-.4477153-1-1s.4477153-1 1-1h12c.5522847 0 1 .4477153 1 1zm-1 5h-12c-.5522847 0-1-.4477153-1-1s.4477153-1 1-1h12c.5522847 0 1 .4477153 1 1s-.4477153 1-1 1zm0-10c.5522847 0 1 .4477153 1 1s-.4477153 1-1 1h-12c-.5522847 0-1-.4477153-1-1s.4477153-1 1-1zm-14-10c0-4.418278 3.581722-8 8-8s8 3.581722 8 8-3.581722 8-8 8c-4.4162219-.0049599-7.9950401-3.5837781-8-8z" fill-rule="nonzero" fill="#000000" data-original="#000000" class=""/><path id="Path" d="m31 37c-.4851707-.000473-.9000069-.3491365-.9839455-.8269912-.0839386-.4778548.1872399-.9470217.6432053-1.1128119.4559653-.1657902.9651545.0196329 1.2077402.4398031.1727115.3209394.5063525.5225002.8707953.5260692.3644429.003569.7019673-.1914191.880931-.5089145s.1710225-.7072132-.0207263-1.0171547c-.3625283-.608365-.9285888-1.0688648-1.598-1.3v-.2c0-.5522847-.4477153-1-1-1s-1 .4477153-1 1v.184c-1.3765475.4848523-2.2026937 1.8918441-1.9553873 3.330178s1.49595 2.4885874 2.9553873 2.485822c.4851707.000473.9000069.3491365.9839455.8269912.0839386.4778548-.1872399.9470217-.6432053 1.1128119-.4559653.1657902-.9651545-.0196329-1.2077402-.4398031-.2843876-.4596821-.882589-.61017-1.3506397-.3397768s-.6365131.8637835-.3803603 1.3397768c.3630242.6087308.9298468 1.0692742 1.6 1.3v.2c0 .5522847.4477153 1 1 1s1-.4477153 1-1v-.184c1.3769108-.4849733 2.2030823-1.8925391 1.9552305-3.3311676-.2478517-1.4386286-1.4974125-2.4885802-2.9572305-2.4848324z" fill="#000000" data-original="#000000" class=""/><path id="Shape" d="m51 20c-4.307827-.0047948-8.1333644 2.7528962-9.4905081 6.8413626s.0599256 8.5864115 3.5155081 11.1586374h-.025c-1.1856144-.005247-2.2620981.691231-2.7432243 1.7748484-.4811261 1.0836175-.2758048 2.3492169.5232243 3.2251516-1.0400491 1.1305142-1.0400491 2.8694858 0 4-1.0400491 1.1305142-1.0400491 2.8694858 0 4-1.0400491 1.1305142-1.0400491 2.8694858 0 4-.7990291.8759347-1.0043504 2.1415341-.5232243 3.2251516.4811262 1.0836174 1.5576099 1.7800954 2.7432243 1.7748484h12c1.1856144.005247 2.2620981-.691231 2.7432243-1.7748484.4811261-1.0836175.2758048-2.3492169-.5232243-3.2251516 1.0400491-1.1305142 1.0400491-2.8694858 0-4 1.0400491-1.1305142 1.0400491-2.8694858 0-4 1.0400491-1.1305142 1.0400491-2.8694858 0-4 .7990291-.8759347 1.0043504-2.1415341.5232243-3.2251516-.4811262-1.0836174-1.5576099-1.7800954-2.7432243-1.7748484h-.026c3.4567603-2.5714769 4.8748346-7.0698437 3.5177387-11.1588505-1.3570959-4.0890067-5.183415-6.8468177-9.4917387-6.8411495zm7 25c0 .5522847-.4477153 1-1 1h-12c-.5522847 0-1-.4477153-1-1s.4477153-1 1-1h12c.5522847 0 1 .4477153 1 1zm0 4c0 .5522847-.4477153 1-1 1h-12c-.5522847 0-1-.4477153-1-1s.4477153-1 1-1h12c.5522847 0 1 .4477153 1 1zm0 4c0 .5522847-.4477153 1-1 1h-12c-.5522847 0-1-.4477153-1-1s.4477153-1 1-1h12c.5522847 0 1 .4477153 1 1zm-1 5h-12c-.5522847 0-1-.4477153-1-1s.4477153-1 1-1h12c.5522847 0 1 .4477153 1 1s-.4477153 1-1 1zm0-18c.5522847 0 1 .4477153 1 1s-.4477153 1-1 1h-12c-.5522847 0-1-.4477153-1-1s.4477153-1 1-1zm-6-2c-4.418278 0-8-3.581722-8-8s3.581722-8 8-8 8 3.581722 8 8c-.0049599 4.4162219-3.5837781 7.9950401-8 8z" fill-rule="nonzero" fill="#000000" data-original="#000000" class=""/><path id="Path" d="m51 29c-.4851707-.000473-.9000069-.3491365-.9839455-.8269912-.0839386-.4778548.1872399-.9470217.6432053-1.1128119.4559653-.1657902.9651545.0196329 1.2077402.4398031.2843876.4596821.882589.61017 1.3506397.3397768s.6365131-.8637835.3803603-1.3397768c-.3620629-.6087671-.9282899-1.0694024-1.598-1.3v-.2c0-.5522847-.4477153-1-1-1s-1 .4477153-1 1v.184c-1.3765475.4848523-2.2026937 1.8918441-1.9553873 3.330178s1.49595 2.4885874 2.9553873 2.485822c.4851707.000473.9000069.3491365.9839455.8269912.0839386.4778548-.1872399.9470217-.6432053 1.1128119-.4559653.1657902-.9651545-.0196329-1.2077402-.4398031-.2843876-.4596821-.882589-.61017-1.3506397-.3397768s-.6365131.8637835-.3803603 1.3397768c.3625581.6091337.9295478 1.0698128 1.6 1.3v.2c0 .5522847.4477153 1 1 1s1-.4477153 1-1v-.184c1.3769108-.4849733 2.2030823-1.8925391 1.9552305-3.3311676-.2478517-1.4386286-1.4974125-2.4885802-2.9572305-2.4848324z" fill="#000000" data-original="#000000" class=""/><path id="Shape" d="m5.025 54h-.025c-1.65685425 0-3 1.3431458-3 3s1.34314575 3 3 3h12c1.6568542 0 3-1.3431458 3-3s-1.3431458-3-3-3h-.025c3.4560945-2.5752544 4.8733309-7.0751632 3.5167567-11.1661571-1.3565742-4.0909938-5.1817075-6.852532-9.4917567-6.852532-4.31004921 0-8.13518254 2.7615382-9.49175671 6.852532-1.35657418 4.0909939.06066225 8.5909027 3.51675671 11.1661571zm11.975 2c.5522847 0 1 .4477153 1 1s-.4477153 1-1 1h-12c-.55228475 0-1-.4477153-1-1s.44771525-1 1-1zm-6-18c4.418278 0 8 3.581722 8 8s-3.581722 8-8 8-8-3.581722-8-8c.00495988-4.4162219 3.58377808-7.9950401 8-8z" fill-rule="nonzero" fill="#000000" data-original="#000000" class=""/><path id="Path" d="m11 47c.4851707.000473.9000069.3491365.9839455.8269912.0839386.4778548-.1872399.9470217-.6432053 1.1128119-.4559653.1657902-.9651545-.0196329-1.2077402-.4398031-.17271151-.3209394-.50635246-.5225002-.87079533-.5260692s-.70196724.1914191-.88093096.5089145-.17102255.7072132.02072629 1.0171547c.36302417.6087308.92984682 1.0692742 1.6 1.3v.2c0 .5522847.4477153 1 1 1s1-.4477153 1-1v-.184c1.3769108-.4849733 2.2030823-1.8925391 1.9552305-3.3311676-.2478517-1.4386286-1.4974125-2.4885802-2.9572305-2.4848324-.4851707-.000473-.9000069-.3491365-.9839455-.8269912-.08393858-.4778548.1872399-.9470217.6432053-1.1128119.4559653-.1657902.9651545.0196329 1.2077402.4398031.1727115.3209394.5063525.5225002.8707953.5260692.3644429.003569.7019673-.1914191.880931-.5089145s.1710225-.7072132-.0207263-1.0171547c-.3625283-.608365-.9285888-1.0688648-1.598-1.3v-.2c0-.5522847-.4477153-1-1-1s-1 .4477153-1 1v.184c-1.37654748.4848523-2.2026937 1.8918441-1.95538732 3.330178.24730637 1.4383339 1.49595006 2.4885874 2.95538732 2.485822z" fill="#000000" data-original="#000000" class=""/></g></g></g></g></svg>
