<?xml version="1.0"?>
<svg xmlns="http://www.w3.org/2000/svg" xmlns:xlink="http://www.w3.org/1999/xlink" xmlns:svgjs="http://svgjs.com/svgjs" version="1.1" width="512" height="512" x="0" y="0" viewBox="0 0 512 512" style="enable-background:new 0 0 512 512" xml:space="preserve" class=""><g><g xmlns="http://www.w3.org/2000/svg"><path d="m30 330h91v167h-91z" fill="#8d65df" data-original="#fed843" class=""/><path d="m271 300h91v197h-91z" fill="#8d65df" data-original="#fed843" class=""/><path d="m151 240h90v257h-90z" fill="#ca97f5" data-original="#ff641a" class=""/><path d="m392 180h90v317h-90z" fill="#ca97f5" data-original="#ff641a" class=""/><path d="m76 330h45v167h-45z" fill="#000000" data-original="#fabe2c" class=""/><path d="m196 240h45v257h-45z" fill="#6c42c0" data-original="#f03800" class=""/><path d="m316 300h46v197h-46z" fill="#000000" data-original="#fabe2c" class=""/><path d="m437 180h45v317h-45z" fill="#6c42c0" data-original="#f03800" class=""/><path d="m392 0v30h68.789l-144.789 143.789-60-60-60-60-191.605 190.606 21.21 21.21 170.395-169.394 60 60 60 60 166-165v68.789h30v-120z" fill="#000000" data-original="#97de3d" class=""/><path d="m482 51.211v68.789h30v-120h-120v30h68.789l-144.789 143.789-60-60v42.422l60 60z" fill="#6c42c0" data-original="#59c36a" class=""/><path d="m256 482h-256v30h256 256v-30z" fill="#8d65df" data-original="#2d5177" class=""/><path d="m256 482h256v30h-256z" fill="#000000" data-original="#32405d" class=""/></g></g></svg>
