<svg width="20" height="19" viewBox="0 0 20 19" fill="none" xmlns="http://www.w3.org/2000/svg">
<path fill-rule="evenodd" clip-rule="evenodd" d="M5 2.87451C5.48325 2.87451 5.875 3.26626 5.875 3.74951L5.875 16.2495C5.875 16.7328 5.48325 17.1245 5 17.1245C4.51675 17.1245 4.125 16.7328 4.125 16.2495L4.125 3.74951C4.125 3.26626 4.51675 2.87451 5 2.87451Z" fill="#67748B"/>
<path fill-rule="evenodd" clip-rule="evenodd" d="M15 15.458C14.5168 15.458 14.125 15.0663 14.125 14.583L14.125 2.08301C14.125 1.59976 14.5167 1.20801 15 1.20801C15.4832 1.20801 15.875 1.59976 15.875 2.08301L15.875 14.583C15.875 15.0663 15.4832 15.458 15 15.458Z" fill="#67748B"/>
<path fill-rule="evenodd" clip-rule="evenodd" d="M4.46978 17.8033C4.17689 17.5104 4.17689 17.0355 4.46978 16.7426L8.40912 12.8033C8.70202 12.5104 9.17689 12.5104 9.46978 12.8033C9.76268 13.0962 9.76268 13.571 9.46978 13.8639L5.53044 17.8033C5.23755 18.0962 4.76268 18.0962 4.46978 17.8033Z" fill="#67748B"/>
<path fill-rule="evenodd" clip-rule="evenodd" d="M15.5302 0.530217C15.8231 0.82311 15.8231 1.29798 15.5302 1.59088L11.5909 5.53022C11.298 5.82311 10.8231 5.82311 10.5302 5.53022C10.2373 5.23732 10.2373 4.76245 10.5302 4.46956L14.4696 0.530217C14.7624 0.237324 15.2373 0.237324 15.5302 0.530217Z" fill="#67748B"/>
<path fill-rule="evenodd" clip-rule="evenodd" d="M5.53022 17.8033C5.82311 17.5104 5.82311 17.0355 5.53022 16.7426L1.59088 12.8033C1.29798 12.5104 0.82311 12.5104 0.530217 12.8033C0.237324 13.0962 0.237324 13.571 0.530217 13.8639L4.46956 17.8033C4.76245 18.0962 5.23732 18.0962 5.53022 17.8033Z" fill="#67748B"/>
<path fill-rule="evenodd" clip-rule="evenodd" d="M14.4698 0.530217C14.1769 0.82311 14.1769 1.29798 14.4698 1.59088L18.4091 5.53022C18.702 5.82311 19.1769 5.82311 19.4698 5.53022C19.7627 5.23732 19.7627 4.76245 19.4698 4.46956L15.5304 0.530217C15.2376 0.237323 14.7627 0.237324 14.4698 0.530217Z" fill="#67748B"/>
</svg>