<?xml version="1.0"?>
<svg xmlns="http://www.w3.org/2000/svg" xmlns:xlink="http://www.w3.org/1999/xlink" xmlns:svgjs="http://svgjs.com/svgjs" version="1.1" width="512" height="512" x="0" y="0" viewBox="0 0 512 512" style="enable-background:new 0 0 512 512" xml:space="preserve" class=""><g>
<g xmlns="http://www.w3.org/2000/svg">
	<g>
		<g>
			<g>
				<g>
					<g>
						<g>
							<g>
								<g>
									<g>
										<circle style="" cx="256" cy="256" r="256" fill="#9f58dd" data-original="#19cffc" class=""/>
									</g>
								</g>
							</g>
						</g>
					</g>
				</g>
			</g>
		</g>
	</g>
	<path style="" d="M259.271,511.958C399.146,510.204,512,396.291,512,256c0-4.561-0.124-9.092-0.36-13.594   L400.5,131.266L61.327,273.585L190.91,403.168l-12.756,27.673L259.271,511.958z" fill="#9800ff" data-original="#41b3e5" class=""/>
	<g>
		<polygon style="" points="400.5,131.266 61.327,273.585 314.397,395.585   " fill="#dbb4ff" data-original="#ffffff" class=""/>
	</g>
	<g>
		<polygon style="" points="400.5,131.266 255.905,191.938 255.905,367.387 314.397,395.585   " fill="#dbb4ff" data-original="#f2f6fc" class=""/>
	</g>
	<g>
		<polygon style="" points="400.5,131.266 152.583,317.577 208.708,344.634   " fill="#9f59dd" data-original="#dce1eb" class=""/>
	</g>
	<g>
		<polygon style="" points="255.905,239.93 255.905,292.127 400.5,131.266   " fill="#9f59dd" data-original="#cdd2e1" class=""/>
	</g>
	<g>
		<polygon style="" points="234.489,357.063 178.153,430.841 178.153,329.905   " fill="#dbb4ff" data-original="#f2f6fc" class=""/>
	</g>
</g>















</g></svg>
