<svg width="14" height="13" viewBox="0 0 14 13" fill="none" xmlns="http://www.w3.org/2000/svg">
<path fill-rule="evenodd" clip-rule="evenodd" d="M12 3.5H2C1.17157 3.5 0.5 4.17157 0.5 5V11C0.5 11.8284 1.17157 12.5 2 12.5H12C12.8284 12.5 13.5 11.8284 13.5 11V5C13.5 4.17157 12.8284 3.5 12 3.5Z" stroke="#B7BECB" stroke-linejoin="round"/>
<path d="M11.855 3.49999V2.56249C11.8549 2.33255 11.8041 2.10546 11.7062 1.89743C11.6082 1.6894 11.4656 1.50555 11.2884 1.35899C11.1112 1.21244 10.9039 1.1068 10.6812 1.0496C10.4585 0.9924 10.2259 0.98507 10 1.02811L1.77 2.4328C1.4126 2.50091 1.09017 2.6916 0.85833 2.972C0.62648 3.25239 0.49975 3.6049 0.5 3.96874V5.49998" stroke="#B7BECB" stroke-linejoin="round"/>
<path d="M10.5 9C10.3022 9 10.1089 8.94136 9.94443 8.83148C9.78003 8.7216 9.65183 8.56542 9.57613 8.38269C9.50043 8.19997 9.48063 7.9989 9.51923 7.80492C9.55783 7.61093 9.65303 7.43275 9.79293 7.2929C9.93273 7.15304 10.1109 7.0578 10.3049 7.01922C10.4989 6.98063 10.6999 7.00043 10.8827 7.07612C11.0654 7.15181 11.2216 7.27998 11.3315 7.44443C11.4413 7.60888 11.5 7.80222 11.5 8.00001C11.5 8.26522 11.3946 8.51958 11.2071 8.70712C11.0195 8.89465 10.7652 9 10.5 9Z" fill="#B7BECB"/>
</svg>