<?xml version="1.0" encoding="UTF-8" standalone="no"?>
<!-- Created with Inkscape (http://www.inkscape.org/) -->

<svg
   version="1.1"
   id="svg2310"
   xml:space="preserve"
   width="682.66669"
   height="682.66669"
   viewBox="0 0 682.66669 682.66669"
   xmlns="http://www.w3.org/2000/svg"
   xmlns:svg="http://www.w3.org/2000/svg"><defs
     id="defs2314"><clipPath
       clipPathUnits="userSpaceOnUse"
       id="clipPath2344"><path
         d="M 0,512 H 512 V 0 H 0 Z"
         id="path2342" /></clipPath></defs><g
     id="g2316"
     transform="matrix(1.3333333,0,0,-1.3333333,0,682.66667)"><g
       id="g2318"
       transform="translate(71.2334,432.7334)"><path
         d="M 0,0 32.133,-96.4 64.267,0"
         style="fill:none;stroke:#000000;stroke-width:30;stroke-linecap:round;stroke-linejoin:round;stroke-miterlimit:10;stroke-dasharray:none;stroke-opacity:1"
         id="path2320" /></g><g
       id="g2322"
       transform="translate(296.167,432.7334)"><path
         d="M 0,0 H 56.233"
         style="fill:none;stroke:#000000;stroke-width:30;stroke-linecap:round;stroke-linejoin:round;stroke-miterlimit:10;stroke-dasharray:none;stroke-opacity:1"
         id="path2324" /></g><g
       id="g2326"
       transform="translate(324.2832,432.7334)"><path
         d="M 0,0 V -96.4"
         style="fill:none;stroke:#000000;stroke-width:30;stroke-linecap:round;stroke-linejoin:round;stroke-miterlimit:10;stroke-dasharray:none;stroke-opacity:1"
         id="path2328" /></g><g
       id="g2330"
       transform="translate(440.7666,432.7334)"><path
         d="M 0,0 H -40.167 V -96.4 H 0"
         style="fill:none;stroke:#000000;stroke-width:30;stroke-linecap:round;stroke-linejoin:round;stroke-miterlimit:10;stroke-dasharray:none;stroke-opacity:1"
         id="path2332" /></g><g
       id="g2334"
       transform="translate(400.5996,384.5332)"><path
         d="M 0,0 H 32.134"
         style="fill:none;stroke:#000000;stroke-width:30;stroke-linecap:round;stroke-linejoin:round;stroke-miterlimit:10;stroke-dasharray:none;stroke-opacity:1"
         id="path2336" /></g><g
       id="g2338"><g
         id="g2340"
         clip-path="url(#clipPath2344)"><g
           id="g2346"
           transform="translate(215.833,432.7334)"><path
             d="m 0,0 c 22.173,0 40.167,-21.598 40.167,-48.2 0,-26.603 -17.994,-48.2 -40.167,-48.2 -22.172,0 -40.166,21.597 -40.166,48.2 C -40.166,-21.598 -22.172,0 0,0 Z"
             style="fill:none;stroke:#000000;stroke-width:30;stroke-linecap:round;stroke-linejoin:round;stroke-miterlimit:10;stroke-dasharray:none;stroke-opacity:1"
             id="path2348" /></g><g
           id="g2350"
           transform="translate(497,464.8662)"><path
             d="m 0,0 c 0,8.523 -3.382,16.696 -9.415,22.722 -6.025,6.027 -14.195,9.412 -22.719,9.412 h -417.732 c -8.524,0 -16.694,-3.385 -22.719,-9.412 C -478.618,16.696 -482,8.523 -482,0 v -160.666 c 0,-17.747 14.388,-32.134 32.134,-32.134 h 176.732 v 32.613 c 0,8.607 3.455,16.853 9.584,22.892 6.13,6.039 14.428,9.367 23.032,9.237 17.561,-0.262 31.652,-14.57 31.652,-32.129 V -192.8 h 176.749 c 8.515,0 16.684,3.384 22.71,9.407 6.025,6.024 9.407,14.193 9.407,22.71 z"
             style="fill:none;stroke:#000000;stroke-width:30;stroke-linecap:round;stroke-linejoin:round;stroke-miterlimit:10;stroke-dasharray:none;stroke-opacity:1"
             id="path2352" /></g><g
           id="g2354"
           transform="translate(223.8662,272.0664)"><path
             d="m 0,0 v -64.267 h -176.732 c -8.524,0 -16.694,3.386 -22.719,9.413 -6.033,6.025 -9.415,14.199 -9.415,22.721 V 32.134 C -208.866,14.387 -194.479,0 -176.732,0 Z"
             style="fill:none;stroke:#000000;stroke-width:30;stroke-linecap:round;stroke-linejoin:round;stroke-miterlimit:10;stroke-dasharray:none;stroke-opacity:1"
             id="path2356" /></g><g
           id="g2358"
           transform="translate(288.1338,272.0664)"><path
             d="m 0,0 v -64.267 h 176.732 c 8.524,0 16.694,3.386 22.719,9.413 6.033,6.025 9.415,14.199 9.415,22.721 v 64.267 -0.017 c 0,-8.517 -3.382,-16.686 -9.407,-22.71 C 193.434,3.384 185.265,0 176.749,0 Z"
             style="fill:none;stroke:#000000;stroke-width:30;stroke-linecap:round;stroke-linejoin:round;stroke-miterlimit:10;stroke-dasharray:none;stroke-opacity:1"
             id="path2360" /></g><g
           id="g2362"
           transform="translate(416.667,63.2002)"><path
             d="m 0,0 c 0,-26.62 -21.578,-48.2 -48.2,-48.2 h -124.638 c -12.781,0 -25.04,5.078 -34.077,14.118 -13.736,13.733 -35.531,35.531 -56.434,56.434 -9.72,9.713 -12.621,24.322 -7.367,37.014 5.262,12.692 17.642,20.967 31.378,20.967 h 0.04 c 9.198,0 18.02,-3.652 24.519,-10.155 9.415,-9.415 21.978,-21.978 21.978,-21.978 V 241 c 0,8.522 3.383,16.695 9.415,22.722 6.026,6.026 14.196,9.411 22.719,9.411 17.745,0 32.134,-14.387 32.134,-32.133 V 144.6 H -48.2 C -21.578,144.6 0,123.02 0,96.399 Z"
             style="fill:none;stroke:#000000;stroke-width:30;stroke-linecap:round;stroke-linejoin:round;stroke-miterlimit:10;stroke-dasharray:none;stroke-opacity:1"
             id="path2364" /></g></g></g></g></svg>
