
<?xml version="1.0" encoding="UTF-8" standalone="no"?>
<svg
   width="967.55908"
   height="967.55908"
   viewBox="0 0 967.55908 967.55908"
   fill="none"
   version="1.1"
   id="svg1246"
   sodipodi:docname="Magic Internet Money MIM Coin Icon 256x256.svg"
   inkscape:version="1.1 (c68e22c387, 2021-05-23)"
   xmlns:inkscape="http://www.inkscape.org/namespaces/inkscape"
   xmlns:sodipodi="http://sodipodi.sourceforge.net/DTD/sodipodi-0.dtd"
   xmlns="http://www.w3.org/2000/svg"
   xmlns:svg="http://www.w3.org/2000/svg">
  <defs
     id="defs1250" />
  <sodipodi:namedview
     id="namedview1248"
     pagecolor="#ffffff"
     bordercolor="#666666"
     borderopacity="1.0"
     inkscape:pageshadow="2"
     inkscape:pageopacity="0.0"
     inkscape:pagecheckerboard="0"
     showgrid="false"
     inkscape:zoom="0.33513915"
     inkscape:cx="484.87322"
     inkscape:cy="571.40444"
     inkscape:window-width="1366"
     inkscape:window-height="705"
     inkscape:window-x="-8"
     inkscape:window-y="-8"
     inkscape:window-maximized="1"
     inkscape:current-layer="svg1246" />
  <circle
     style="fill:#333333;stroke-width:75.5906"
     id="path1482"
     cx="483.77954"
     cy="483.77954"
     r="483.77954" />
  <g
     id="g1436"
     transform="matrix(12.598425,0,0,12.598425,105.82679,105.82679)">
    <rect
       x="15"
       y="25"
       width="5"
       height="5"
       transform="rotate(180,15,25)"
       fill="#fed955"
       id="rect1038" />
    <rect
       x="15"
       y="35"
       width="5"
       height="5"
       transform="rotate(180,15,35)"
       fill="#fed955"
       id="rect1040" />
    <rect
       x="15"
       y="30"
       width="5"
       height="5"
       transform="rotate(180,15,30)"
       fill="#fed955"
       id="rect1042" />
    <rect
       x="15"
       y="40"
       width="5"
       height="5"
       transform="rotate(180,15,40)"
       fill="#fed955"
       id="rect1044" />
    <rect
       x="35"
       y="15"
       width="5"
       height="5"
       transform="rotate(180,35,15)"
       fill="#fed955"
       id="rect1046" />
    <rect
       width="5"
       height="5"
       transform="matrix(-1,8.74226e-8,8.7423e-8,1,35,45)"
       fill="#fed955"
       id="rect1048"
       x="0"
       y="0" />
    <rect
       x="40"
       y="15"
       width="5"
       height="5"
       transform="rotate(180,40,15)"
       fill="#fed955"
       id="rect1050" />
    <rect
       x="45"
       y="15"
       width="5"
       height="5"
       transform="rotate(180,45,15)"
       fill="#9695f8"
       id="rect1052" />
    <rect
       width="5"
       height="5"
       transform="matrix(1,-8.74226e-8,-8.7423e-8,-1,15,15)"
       fill="#9695f8"
       id="rect1054"
       x="0"
       y="0" />
    <rect
       width="5"
       height="5"
       transform="matrix(1,-8.74226e-8,-8.7423e-8,-1,45,45)"
       fill="#9695f8"
       id="rect1056"
       x="0"
       y="0" />
    <rect
       x="15"
       y="45"
       width="5"
       height="5"
       transform="rotate(180,15,45)"
       fill="#9695f8"
       id="rect1058" />
    <rect
       x="40"
       y="10"
       width="5"
       height="5"
       transform="rotate(180,40,10)"
       fill="#9695f8"
       id="rect1060" />
    <rect
       x="40"
       y="5"
       width="5"
       height="5"
       transform="rotate(180,40,5)"
       fill="#5552fd"
       id="rect1062" />
    <rect
       x="40"
       y="60"
       width="5"
       height="5"
       transform="rotate(180,40,60)"
       fill="#5552fd"
       id="rect1064" />
    <rect
       x="40"
       y="55"
       width="5"
       height="5"
       transform="rotate(180,40,55)"
       fill="#9695f8"
       id="rect1066" />
    <rect
       x="30"
       y="10"
       width="5"
       height="5"
       transform="rotate(180,30,10)"
       fill="#9695f8"
       id="rect1068" />
    <rect
       x="30"
       y="5"
       width="5"
       height="5"
       transform="rotate(180,30,5)"
       fill="#5552fd"
       id="rect1070" />
    <rect
       x="30"
       y="60"
       width="5"
       height="5"
       transform="rotate(180,30,60)"
       fill="#5552fd"
       id="rect1072" />
    <rect
       x="30"
       y="55"
       width="5"
       height="5"
       transform="rotate(180,30,55)"
       fill="#9695f8"
       id="rect1074" />
    <rect
       x="35"
       y="10"
       width="5"
       height="5"
       transform="rotate(180,35,10)"
       fill="#9695f8"
       id="rect1076" />
    <rect
       x="35"
       y="5"
       width="5"
       height="5"
       transform="rotate(180,35,5)"
       fill="#5552fd"
       id="rect1078" />
    <rect
       x="35"
       y="60"
       width="5"
       height="5"
       transform="rotate(180,35,60)"
       fill="#5552fd"
       id="rect1080" />
    <rect
       x="35"
       y="55"
       width="5"
       height="5"
       transform="rotate(180,35,55)"
       fill="#9695f8"
       id="rect1082" />
    <rect
       x="25"
       y="10"
       width="5"
       height="5"
       transform="rotate(180,25,10)"
       fill="#9695f8"
       id="rect1084" />
    <rect
       x="25"
       y="5"
       width="5"
       height="5"
       transform="rotate(180,25,5)"
       fill="#5552fd"
       id="rect1086" />
    <rect
       x="25"
       y="60"
       width="5"
       height="5"
       transform="rotate(180,25,60)"
       fill="#5552fd"
       id="rect1088" />
    <rect
       x="25"
       y="55"
       width="5"
       height="5"
       transform="rotate(180,25,55)"
       fill="#9695f8"
       id="rect1090" />
    <rect
       x="50"
       y="20"
       width="5"
       height="5"
       transform="rotate(180,50,20)"
       fill="#9695f8"
       id="rect1092" />
    <rect
       width="5"
       height="5"
       transform="matrix(1,-8.74226e-8,-8.7423e-8,-1,10,20)"
       fill="#9695f8"
       id="rect1094"
       x="0"
       y="0" />
    <rect
       width="5"
       height="5"
       transform="matrix(1,-8.74226e-8,-8.7423e-8,-1,40,50)"
       fill="#9695f8"
       id="rect1096"
       x="0"
       y="0" />
    <rect
       x="20"
       y="50"
       width="5"
       height="5"
       transform="rotate(180,20,50)"
       fill="#9695f8"
       id="rect1098" />
    <rect
       x="55"
       y="25"
       width="5"
       height="5"
       transform="rotate(180,55,25)"
       fill="#9695f8"
       id="rect1100" />
    <rect
       x="10"
       y="25"
       width="5"
       height="5"
       transform="rotate(180,10,25)"
       fill="#9695f8"
       id="rect1102" />
    <rect
       x="5"
       y="25"
       width="5"
       height="5"
       transform="rotate(180,5,25)"
       fill="#5552fd"
       id="rect1104" />
    <rect
       x="10"
       y="20"
       width="5"
       height="5"
       transform="rotate(180,10,20)"
       fill="#5552fd"
       id="rect1106" />
    <rect
       width="5"
       height="5"
       transform="matrix(1,-8.74226e-8,-8.7423e-8,-1,50,20)"
       fill="#5552fd"
       id="rect1108"
       x="0"
       y="0" />
    <rect
       x="45"
       y="55"
       width="5"
       height="5"
       transform="rotate(180,45,55)"
       fill="#5552fd"
       id="rect1110" />
    <rect
       x="5"
       y="45"
       width="5"
       height="5"
       transform="rotate(-90,5,45)"
       fill="#5552fd"
       id="rect1112" />
    <rect
       x="15"
       y="15"
       width="5"
       height="5"
       transform="rotate(180,15,15)"
       fill="#5552fd"
       id="rect1114" />
    <rect
       width="5"
       height="5"
       transform="matrix(1,-8.74226e-8,-8.7423e-8,-1,45,15)"
       fill="#5552fd"
       id="rect1116"
       x="0"
       y="0" />
    <rect
       x="50"
       y="50"
       width="5"
       height="5"
       transform="rotate(180,50,50)"
       fill="#5552fd"
       id="rect1118" />
    <rect
       x="10"
       y="50"
       width="5"
       height="5"
       transform="rotate(-90,10,50)"
       fill="#5552fd"
       id="rect1120" />
    <rect
       x="20"
       y="10"
       width="5"
       height="5"
       transform="rotate(180,20,10)"
       fill="#5552fd"
       id="rect1122" />
    <rect
       width="5"
       height="5"
       transform="matrix(1,-8.74226e-8,-8.7423e-8,-1,40,10)"
       fill="#5552fd"
       id="rect1124"
       x="0"
       y="0" />
    <rect
       x="55"
       y="45"
       width="5"
       height="5"
       transform="rotate(180,55,45)"
       fill="#5552fd"
       id="rect1126" />
    <rect
       x="15"
       y="55"
       width="5"
       height="5"
       transform="rotate(-90,15,55)"
       fill="#5552fd"
       id="rect1128" />
    <rect
       x="60"
       y="25"
       width="5"
       height="5"
       transform="rotate(180,60,25)"
       fill="#5552fd"
       id="rect1130" />
    <rect
       x="55"
       y="30"
       width="5"
       height="5"
       transform="rotate(180,55,30)"
       fill="#9695f8"
       id="rect1132" />
    <rect
       x="10"
       y="30"
       width="5"
       height="5"
       transform="rotate(180,10,30)"
       fill="#9695f8"
       id="rect1134" />
    <rect
       x="5"
       y="30"
       width="5"
       height="5"
       transform="rotate(180,5,30)"
       fill="#5552fd"
       id="rect1136" />
    <rect
       x="60"
       y="30"
       width="5"
       height="5"
       transform="rotate(180,60,30)"
       fill="#5552fd"
       id="rect1138" />
    <rect
       x="55"
       y="35"
       width="5"
       height="5"
       transform="rotate(180,55,35)"
       fill="#9695f8"
       id="rect1140" />
    <rect
       x="10"
       y="35"
       width="5"
       height="5"
       transform="rotate(180,10,35)"
       fill="#9695f8"
       id="rect1142" />
    <rect
       x="5"
       y="35"
       width="5"
       height="5"
       transform="rotate(180,5,35)"
       fill="#5552fd"
       id="rect1144" />
    <rect
       x="60"
       y="35"
       width="5"
       height="5"
       transform="rotate(180,60,35)"
       fill="#5552fd"
       id="rect1146" />
    <rect
       x="55"
       y="40"
       width="5"
       height="5"
       transform="rotate(180,55,40)"
       fill="#9695f8"
       id="rect1148" />
    <rect
       x="10"
       y="40"
       width="5"
       height="5"
       transform="rotate(180,10,40)"
       fill="#9695f8"
       id="rect1150" />
    <rect
       x="5"
       y="40"
       width="5"
       height="5"
       transform="rotate(180,5,40)"
       fill="#5552fd"
       id="rect1152" />
    <rect
       x="60"
       y="40"
       width="5"
       height="5"
       transform="rotate(180,60,40)"
       fill="#5552fd"
       id="rect1154" />
    <rect
       width="5"
       height="5"
       transform="matrix(-1,8.74226e-8,8.7423e-8,1,40,45)"
       fill="#fed955"
       id="rect1156"
       x="0"
       y="0" />
    <rect
       x="35"
       y="25"
       width="5"
       height="5"
       transform="rotate(180,35,25)"
       fill="#fed955"
       id="rect1158" />
    <rect
       x="35"
       y="35"
       width="5"
       height="5"
       transform="rotate(180,35,35)"
       fill="#fed955"
       id="rect1160" />
    <rect
       x="35"
       y="40"
       width="5"
       height="5"
       transform="rotate(180,35,40)"
       fill="#fed955"
       id="rect1162" />
    <rect
       x="35"
       y="20"
       width="5"
       height="5"
       transform="rotate(180,35,20)"
       fill="#fed955"
       id="rect1164" />
    <rect
       width="5"
       height="5"
       transform="matrix(-1,8.74226e-8,8.74229e-8,1,35,40)"
       fill="#fed955"
       id="rect1166"
       x="0"
       y="0" />
    <rect
       x="25"
       y="35"
       width="5"
       height="5"
       transform="rotate(180,25,35)"
       fill="#fed955"
       id="rect1168" />
    <rect
       x="25"
       y="30"
       width="5"
       height="5"
       transform="rotate(180,25,30)"
       fill="#fed955"
       id="rect1170" />
    <rect
       x="25"
       y="40"
       width="5"
       height="5"
       transform="rotate(180,25,40)"
       fill="#fed955"
       id="rect1172" />
    <rect
       x="25"
       y="20"
       width="5"
       height="5"
       transform="rotate(180,25,20)"
       fill="#fed955"
       id="rect1174" />
    <rect
       width="5"
       height="5"
       transform="matrix(-1,8.74226e-8,8.74229e-8,1,25,40)"
       fill="#fed955"
       id="rect1176"
       x="0"
       y="0" />
    <rect
       x="40"
       y="35"
       width="5"
       height="5"
       transform="rotate(180,40,35)"
       fill="#fed955"
       id="rect1178" />
    <rect
       x="40"
       y="30"
       width="5"
       height="5"
       transform="rotate(180,40,30)"
       fill="#fed955"
       id="rect1180" />
    <rect
       x="40"
       y="40"
       width="5"
       height="5"
       transform="rotate(180,40,40)"
       fill="#fed955"
       id="rect1182" />
    <rect
       x="40"
       y="20"
       width="5"
       height="5"
       transform="rotate(180,40,20)"
       fill="#fed955"
       id="rect1184" />
    <rect
       width="5"
       height="5"
       transform="matrix(-1,8.74226e-8,8.74229e-8,1,40,40)"
       fill="#fed955"
       id="rect1186"
       x="0"
       y="0" />
    <rect
       x="30"
       y="15"
       width="5"
       height="5"
       transform="rotate(180,30,15)"
       fill="#fed955"
       id="rect1188" />
    <rect
       width="5"
       height="5"
       transform="matrix(-1,8.74226e-8,8.7423e-8,1,30,45)"
       fill="#fed955"
       id="rect1190"
       x="0"
       y="0" />
    <rect
       x="25"
       y="15"
       width="5"
       height="5"
       transform="rotate(180,25,15)"
       fill="#fed955"
       id="rect1192" />
    <rect
       width="5"
       height="5"
       transform="matrix(-1,8.74226e-8,8.7423e-8,1,25,45)"
       fill="#fed955"
       id="rect1194"
       x="0"
       y="0" />
    <rect
       x="30"
       y="25"
       width="5"
       height="5"
       transform="rotate(180,30,25)"
       fill="#fed955"
       id="rect1196" />
    <rect
       x="30"
       y="35"
       width="5"
       height="5"
       transform="rotate(180,30,35)"
       fill="#fed955"
       id="rect1198" />
    <rect
       x="25"
       y="25"
       width="5"
       height="5"
       transform="rotate(180,25,25)"
       fill="#5552fd"
       id="rect1200" />
    <rect
       x="35"
       y="30"
       width="5"
       height="5"
       transform="rotate(180,35,30)"
       fill="#5552fd"
       id="rect1202" />
    <rect
       x="45"
       y="25"
       width="5"
       height="5"
       transform="rotate(180,45,25)"
       fill="#5552fd"
       id="rect1204" />
    <rect
       x="45"
       y="35"
       width="5"
       height="5"
       transform="rotate(180,45,35)"
       fill="#5552fd"
       id="rect1206" />
    <rect
       x="45"
       y="30"
       width="5"
       height="5"
       transform="rotate(180,45,30)"
       fill="#5552fd"
       id="rect1208" />
    <rect
       x="45"
       y="40"
       width="5"
       height="5"
       transform="rotate(180,45,40)"
       fill="#5552fd"
       id="rect1210" />
    <rect
       x="45"
       y="20"
       width="5"
       height="5"
       transform="rotate(180,45,20)"
       fill="#5552fd"
       id="rect1212" />
    <rect
       width="5"
       height="5"
       transform="matrix(-1,8.74226e-8,8.74229e-8,1,45,40)"
       fill="#5552fd"
       id="rect1214"
       x="0"
       y="0" />
    <rect
       x="20"
       y="25"
       width="5"
       height="5"
       transform="rotate(180,20,25)"
       fill="#5552fd"
       id="rect1216" />
    <rect
       x="20"
       y="35"
       width="5"
       height="5"
       transform="rotate(180,20,35)"
       fill="#5552fd"
       id="rect1218" />
    <rect
       x="20"
       y="30"
       width="5"
       height="5"
       transform="rotate(180,20,30)"
       fill="#5552fd"
       id="rect1220" />
    <rect
       x="20"
       y="40"
       width="5"
       height="5"
       transform="rotate(180,20,40)"
       fill="#5552fd"
       id="rect1222" />
    <rect
       x="20"
       y="20"
       width="5"
       height="5"
       transform="rotate(180,20,20)"
       fill="#5552fd"
       id="rect1224" />
    <rect
       width="5"
       height="5"
       transform="matrix(-1,8.74226e-8,8.74229e-8,1,20,40)"
       fill="#5552fd"
       id="rect1226"
       x="0"
       y="0" />
    <rect
       x="40"
       y="25"
       width="5"
       height="5"
       transform="rotate(180,40,25)"
       fill="#5552fd"
       id="rect1228" />
    <rect
       x="30"
       y="30"
       width="5"
       height="5"
       transform="rotate(180,30,30)"
       fill="#5552fd"
       id="rect1230" />
    <rect
       x="30"
       y="40"
       width="5"
       height="5"
       transform="rotate(180,30,40)"
       fill="#fed955"
       id="rect1232" />
    <rect
       x="30"
       y="20"
       width="5"
       height="5"
       transform="rotate(180,30,20)"
       fill="#fed955"
       id="rect1234" />
    <rect
       width="5"
       height="5"
       transform="matrix(-1,8.74226e-8,8.74229e-8,1,30,40)"
       fill="#fed955"
       id="rect1236"
       x="0"
       y="0" />
    <rect
       x="50"
       y="25"
       width="5"
       height="5"
       transform="rotate(180,50,25)"
       fill="#fed955"
       id="rect1238" />
    <rect
       x="50"
       y="35"
       width="5"
       height="5"
       transform="rotate(180,50,35)"
       fill="#fed955"
       id="rect1240" />
    <rect
       x="50"
       y="30"
       width="5"
       height="5"
       transform="rotate(180,50,30)"
       fill="#fed955"
       id="rect1242" />
    <rect
       x="50"
       y="40"
       width="5"
       height="5"
       transform="rotate(180,50,40)"
       fill="#fed955"
       id="rect1244" />
  </g>
</svg>
