<svg width="32" height="32" viewBox="0 0 32 32" fill="none" xmlns="http://www.w3.org/2000/svg">
<g clip-path="url(#clip0_33685_101)">
<path d="M31.3334 22.6669H4.66676V20.6669C4.6668 20.5413 4.63136 20.4182 4.5645 20.3119C4.49764 20.2055 4.4021 20.1202 4.28888 20.0658C4.17565 20.0114 4.04936 19.9901 3.92455 20.0043C3.79974 20.0185 3.68148 20.0677 3.58342 20.1463L0.250089 22.8129C0.170579 22.8769 0.10673 22.9582 0.0634056 23.0507C0.0200814 23.1431 -0.00157407 23.2442 8.90355e-05 23.3463C0.00269685 23.4729 0.0413145 23.5961 0.111422 23.7016C0.130993 23.7314 0.153313 23.7593 0.178089 23.7849C0.204038 23.8131 0.232365 23.839 0.262756 23.8622L3.58409 26.5202C3.68212 26.5985 3.80024 26.6476 3.92489 26.6617C4.04953 26.6759 4.17564 26.6546 4.28872 26.6002C4.4018 26.5459 4.49726 26.4608 4.56414 26.3547C4.63101 26.2485 4.66658 26.1257 4.66676 26.0002V24.0002H31.3334C31.5102 24.0002 31.6798 23.93 31.8048 23.805C31.9298 23.68 32.0001 23.5104 32.0001 23.3336C32.0001 23.1568 31.9298 22.9872 31.8048 22.8622C31.6798 22.7372 31.5102 22.6669 31.3334 22.6669Z" fill="#F9EDEB"/>
<path d="M31.9847 8.52526C31.952 8.37574 31.8692 8.24189 31.75 8.14593L28.4167 5.47926C28.3186 5.40075 28.2004 5.35154 28.0755 5.3373C27.9507 5.32307 27.8244 5.34439 27.7112 5.3988C27.598 5.45322 27.5024 5.53852 27.4356 5.64487C27.3687 5.75123 27.3333 5.8743 27.3333 5.99993V7.99993H0.666667C0.489856 7.99993 0.320286 8.07016 0.195262 8.19519C0.0702379 8.32021 0 8.48978 0 8.66659C0 8.8434 0.0702379 9.01297 0.195262 9.138C0.320286 9.26302 0.489856 9.33326 0.666667 9.33326H27.3333V11.3333C27.3332 11.4589 27.3685 11.5821 27.4353 11.6886C27.5021 11.795 27.5977 11.8804 27.7109 11.9349C27.8242 11.9894 27.9505 12.0108 28.0754 11.9966C28.2002 11.9824 28.3186 11.9331 28.4167 11.8546L31.738 9.19993C31.8181 9.13878 31.8832 9.06029 31.9286 8.97034C31.974 8.88039 31.9984 8.78133 32 8.68059C32.0009 8.6284 31.9958 8.57627 31.9847 8.52526Z" fill="#F9EDEB"/>
<path d="M16 26C21.5228 26 26 21.5228 26 16C26 10.4772 21.5228 6 16 6C10.4772 6 6 10.4772 6 16C6 21.5228 10.4772 26 16 26Z" fill="#F9EDEB"/>
<path d="M15.9987 24.6663C20.7852 24.6663 24.6654 20.7861 24.6654 15.9997C24.6654 11.2132 20.7852 7.33301 15.9987 7.33301C11.2122 7.33301 7.33203 11.2132 7.33203 15.9997C7.33203 20.7861 11.2122 24.6663 15.9987 24.6663Z" fill="#C5583F"/>
<path d="M15.9986 20.6662C15.8218 20.6662 15.6522 20.5959 15.5272 20.4709L11.5272 16.4709C11.4022 16.3458 11.332 16.1763 11.332 15.9995C11.332 15.8228 11.4022 15.6532 11.5272 15.5282L15.5272 11.5282C15.6522 11.4032 15.8218 11.333 15.9986 11.333C16.1753 11.333 16.3449 11.4032 16.4699 11.5282L20.4699 15.5282C20.5949 15.6532 20.6651 15.8228 20.6651 15.9995C20.6651 16.1763 20.5949 16.3458 20.4699 16.4709L16.4699 20.4709C16.3449 20.5959 16.1754 20.6662 15.9986 20.6662Z" fill="#F9EDEB"/>
</g>
<defs>
<clipPath id="clip0_33685_101">
<rect width="32" height="32" fill="white"/>
</clipPath>
</defs>
</svg>