<svg width="96" height="96" viewBox="0 0 96 96" fill="none" xmlns="http://www.w3.org/2000/svg">
<path d="M42.1228 66.0001C41.9578 69.2154 40.5992 72.2535 38.3128 74.5201C33.3328 79.5001 13.7578 81.5701 13.7578 81.5701C13.7578 81.5701 15.8128 62.0701 20.8078 57.0301C23.1301 54.689 26.2574 53.3211 29.5528 53.2051" stroke="#FEF9D7" stroke-width="3" stroke-linecap="round" stroke-linejoin="round"/>
<path d="M25.1895 61.395C25.7548 60.7784 26.4392 60.2827 27.2014 59.9378C27.9636 59.5929 28.7877 59.4059 29.6241 59.3881C30.4605 59.3704 31.2918 59.5222 32.0679 59.8344C32.844 60.1467 33.5489 60.6129 34.1399 61.2049C34.7309 61.797 35.1959 62.5026 35.5069 63.2793C35.8178 64.0559 35.9682 64.8875 35.949 65.7239C35.9298 66.5602 35.7414 67.384 35.3952 68.1456C35.0489 68.9072 34.5521 69.5907 33.9345 70.155C31.4445 72.645 22.7895 72.555 22.7895 72.555C22.7895 72.555 22.6995 63.9 25.1895 61.395Z" stroke="#FEF9D7" stroke-width="3" stroke-linecap="round" stroke-linejoin="round"/>
<path d="M61.7722 17.7004L31.3672 48.1204L44.5822 34.8904L60.4522 50.7604L47.2222 63.9754L77.6422 33.5704C79.7272 31.4704 81.4522 25.3504 82.6072 20.0704L75.3172 12.7354C69.9772 13.8904 63.8572 15.6154 61.7722 17.7004Z" stroke="#FEF9D7" stroke-width="3" stroke-linecap="round" stroke-linejoin="round"/>
<path d="M57.7959 66.6291L53.8359 57.3741L67.0509 44.1441L64.6059 58.8291C64.4878 59.5979 64.1248 60.3081 63.5709 60.8541L57.7959 66.6291ZM28.7109 37.4991L37.9659 41.4741L51.1959 28.2441L36.5109 30.6891C35.7383 30.8184 35.0251 31.1854 34.4709 31.7391L28.7109 37.4991ZM75.3159 12.7341L82.6059 20.0241C83.2209 17.2191 83.6709 14.6391 83.9559 12.9891C83.9924 12.7702 83.976 12.5457 83.9082 12.3343C83.8405 12.1229 83.7232 11.9308 83.5663 11.7738C83.4093 11.6169 83.2172 11.4996 83.0058 11.4318C82.7944 11.3641 82.5699 11.3477 82.3509 11.3841C80.6859 11.6691 78.1059 12.1191 75.3159 12.7341Z" stroke="#FEF9D7" stroke-width="3" stroke-linecap="round" stroke-linejoin="round"/>
<path d="M47.22 63.9751L42.165 65.3101C41.1683 65.3046 40.214 64.9057 39.51 64.2001L31.125 55.8151C30.4162 55.1181 30.0118 54.1691 30 53.1751L31.32 48.1201L47.22 63.9751Z" stroke="#FEF9D7" stroke-width="3" stroke-linecap="round" stroke-linejoin="round"/>
<path d="M63.9881 36.5095C66.8379 36.5095 69.1481 34.1992 69.1481 31.3495C69.1481 28.4997 66.8379 26.1895 63.9881 26.1895C61.1383 26.1895 58.8281 28.4997 58.8281 31.3495C58.8281 34.1992 61.1383 36.5095 63.9881 36.5095Z" stroke="#FEF9D7" stroke-width="3" stroke-linecap="round" stroke-linejoin="round"/>
<path d="M19.4989 20.9094L21.3889 25.4094C21.4519 25.5318 21.5515 25.6314 21.6739 25.6944C21.8092 25.7778 21.9721 25.8041 22.1268 25.7675C22.2814 25.731 22.4153 25.6345 22.4989 25.4994L24.4039 20.9994L28.9039 19.1094C29.0019 19.0529 29.0837 18.9722 29.1414 18.875C29.1992 18.7778 29.2311 18.6674 29.2339 18.5544C29.2285 18.4421 29.1938 18.3333 29.1332 18.2385C29.0727 18.1438 28.9885 18.0666 28.8889 18.0144L24.3889 16.1094L22.4989 11.4444C22.436 11.3257 22.3359 11.2309 22.2139 11.1744C22.1431 11.1384 22.0659 11.1169 21.9867 11.111C21.9075 11.1051 21.8279 11.115 21.7525 11.1402C21.6772 11.1653 21.6076 11.2051 21.5477 11.2573C21.4879 11.3096 21.439 11.3731 21.4039 11.4444L19.4989 15.9444L14.9989 17.8494C14.8981 17.901 14.8135 17.9794 14.7544 18.076C14.6953 18.1726 14.6641 18.2837 14.6641 18.3969C14.6641 18.5102 14.6953 18.6212 14.7544 18.7178C14.8135 18.8144 14.8981 18.8928 14.9989 18.9444L19.4989 20.8494V20.9094Z" stroke="#FEF9D7" stroke-width="3" stroke-linecap="round" stroke-linejoin="round"/>
<path d="M77.0559 76.4998L78.9609 80.9998C79.0182 81.1175 79.1133 81.2125 79.2309 81.2698C79.3762 81.3431 79.5446 81.3558 79.6992 81.3052C79.8538 81.2546 79.9821 81.1448 80.0559 80.9998L81.9459 76.4998L86.4459 74.6098C86.5431 74.5511 86.6251 74.4701 86.685 74.3737C86.745 74.2772 86.7813 74.168 86.7909 74.0548C86.7825 73.9413 86.7467 73.8316 86.6866 73.7349C86.6265 73.6383 86.544 73.5576 86.4459 73.4998L81.9459 71.5948L80.0409 67.0948C79.9936 66.9892 79.9167 66.8995 79.8196 66.8366C79.7224 66.7737 79.6092 66.7402 79.4934 66.7402C79.3777 66.7402 79.2644 66.7737 79.1673 66.8366C79.0702 66.8995 78.9933 66.9892 78.9459 67.0948L77.0559 71.5948L72.5559 73.4848C72.4579 73.5426 72.3753 73.6233 72.3153 73.7199C72.2552 73.8165 72.2194 73.9263 72.2109 74.0398C72.2192 74.1513 72.2551 74.2591 72.3153 74.3533C72.3755 74.4476 72.4582 74.5254 72.5559 74.5798L77.0559 76.4848V76.4998Z" stroke="#FEF9D7" stroke-width="3" stroke-linecap="round" stroke-linejoin="round"/>
<path d="M28.7123 37.5293L11.7773 54.1943" stroke="#FEF9D7" stroke-width="3" stroke-linecap="round" stroke-linejoin="round" stroke-dasharray="5.4 5.4"/>
<path d="M57.7936 66.6299L40.9336 83.3549" stroke="#FEF9D7" stroke-width="3" stroke-linecap="round" stroke-linejoin="round" stroke-dasharray="5.4 5.4"/>
</svg>