<svg xmlns="http://www.w3.org/2000/svg" fill="none" viewBox="0 0 841 969">
  <path fill="#fff" d="m258.19 203.06-94.37-54.35L420.5 0l257.44 148.71-94.37 54.35-163.07-93.6-162.31 93.6Zm486.94 93.6v109.47l94.37-54.35V242.32l-94.37-55.1-94.37 54.34 94.37 55.1Zm-419-54.34 94.37 54.35 94.37-54.35-94.37-55.1-94.37 55.1Zm351.8 93.6-94.36-54.35-163.07 93.6-162.31-93.6-94.37 54.35v109.46l162.31 93.6V726.2l94.37 54.35 94.37-54.35V538.99l163.07-93.6V335.91Zm67.2 335.93-162.32 93.6v109.46L840.25 726.2V429.53l-95.12 55.1v187.22ZM582.8 687.7l94.37-54.35V523.13l-94.37 54.36v110.2Zm-256.68 117v109.46l94.37 54.36 94.37-54.36V804.71l-94.37 54.35-94.37-54.35ZM.75 351.79l94.37 54.35V296.67l94.37-54.35-93.62-55.1L1.5 241.55v110.22H.75Zm95.12 132.86L1.5 430.27v296.67l257.44 148.71V766.21L95.87 671.85V484.63Zm162.31 93.6-94.36-54.35v109.46l94.37 54.35V578.24Z"/>
</svg>