<svg xmlns="http://www.w3.org/2000/svg" fill="none" viewBox="0 0 573 727">
  <path fill="#fff" fill-rule="evenodd" d="m491.48 108.06-176.01-92.8c-8.54-4.5-19.33-6.76-30.15-6.76-10.8 0-21.6 2.26-30.14 6.76l-176 92.8c-10.5 5.53-15.82 13.35-16.58 21.67a.5.5 0 0 1-.08.22v.95c-.02.63-.02 1.26 0 1.9v460.97c-.03.77-.03 1.54 0 2.31.26 8.95 5.54 17.99 16.65 23.85l176.01 92.8c8.54 4.5 19.33 6.76 30.14 6.76 10.82 0 21.6-2.26 30.15-6.76l176-92.8c11.18-5.88 16.8-14.85 17.03-23.84V130.06a.5.5 0 0 1-.17-.32c-1-8.24-6.57-16.27-16.85-21.68ZM58.06 642.83c-9.33-6.43-14.49-11.72-17.94-18.7-4.1-8.3-6.16-20-6.2-37.63H7.5v.75c.1 20.38 2.61 35.4 8.37 47.57 5.75 12.16 14.77 21.5 27.95 30.47a238.5 238.5 0 0 0 8.31 5.38l1.86 1.15 10.64 6.5 13.69-22.82-9.48-5.77-3.22-2a206.6 206.6 0 0 1-7.03-4.55l-.53-.35Zm214.38-378.06a.5.5 0 0 1 .06.23v190a.5.5 0 0 1-.21.4.5.5 0 0 1-.45.07c-1.3-.44-2.53-.96-3.65-1.56L92.45 360.82h-.01l-.4-.22-.29-.17a.5.5 0 0 1 0-.86l.14-.09h.01l.02-.01.53-.28 175.74-93.1a25.2 25.2 0 0 1 3.65-1.56.5.5 0 0 1 .45.06c.06.05.12.11.15.18Zm27.49-.26a.5.5 0 0 1 .23.02c1.3.45 2.53.96 3.65 1.56l175.74 93.09h.01l.4.22.29.17a.5.5 0 0 1 .24.54.5.5 0 0 1-.23.32l-.15.09-.03.01-.53.28-175.74 93.1c-1.12.6-2.35 1.12-3.65 1.56a.5.5 0 0 1-.45-.06.5.5 0 0 1-.21-.4V264.99a.5.5 0 0 1 .21-.4.51.51 0 0 1 .22-.1Zm181.33-101.94c.15.1.24.25.24.43v166a.5.5 0 0 1-.24.43.5.5 0 0 1-.5.01l-158-83a.5.5 0 0 1 0-.88l158-83a.5.5 0 0 1 .5.01Zm-391.27-.07a.5.5 0 0 1 .24.06l158 83a.5.5 0 0 1 0 .88l-158 83a.5.5 0 0 1-.49-.01.5.5 0 0 1-.24-.43V163a.5.5 0 0 1 .48-.5Zm390.1-28.98-.52.3h-.02l-175.9 93c-4.66 2.47-11.17 3.68-17.65 3.68-6.47 0-12.98-1.21-17.65-3.68l-175.9-93h-.01l-.4-.22-.29-.17a.5.5 0 0 1 0-.86l.14-.09h.01l.02-.01.53-.28 175.9-93C273 36.72 279.52 35.5 286 35.5c6.43 0 12.9 1.2 17.57 3.64l.08.04 175.9 93h.01l.4.22.29.17a.5.5 0 0 1 .25.44.5.5 0 0 1-.26.43l-.14.07-.02.01Zm33.86-48.35h.01c9.32 6.43 14.48 11.72 17.93 18.7 4.1 8.3 6.16 20 6.2 37.63h26.42v-.74c-.1-20.38-2.61-35.41-8.37-47.58-5.75-12.15-14.76-21.5-27.94-30.47a255.65 255.65 0 0 0-8.33-5.39l-1.85-1.14-10.65-6.5-13.68 22.82 9.48 5.77 3.22 2a213.93 213.93 0 0 1 7.03 4.56l.53.34ZM481.5 389a.5.5 0 0 0-.73-.44L315.4 476.02c-8.53 4.5-19.3 6.77-30.1 6.77-10.79 0-21.56-2.26-30.09-6.77L90.23 388.76a.5.5 0 0 0-.73.44v205.47c0 .19.1.36.27.44l164.98 86.8c9.74 5.21 19.97 10.36 29.99 10.58l.57.01c9.38.03 18.47-4.43 27.52-8.88l1.12-.55.7-.34h.01l166.57-88.37a.5.5 0 0 0 .27-.44V389Z" clip-rule="evenodd"/>
  <path stroke="#fff" stroke-linejoin="round" stroke-width="15" d="M314.65 682.73h.01l166.57-88.37a.5.5 0 0 0 .27-.44V389a.5.5 0 0 0-.73-.44L315.4 476.02c-8.53 4.5-19.3 6.77-30.1 6.77-10.79 0-21.56-2.26-30.09-6.77m59.43 206.7-.7.35m.7-.34-.7.34m-59.2-1.16c9.74 5.21 19.97 10.36 29.99 10.58l.57.01c9.38.03 18.47-4.43 27.52-8.88l1.12-.55m-59.2-1.16.24-.44m-.24.44-164.98-86.8a.5.5 0 0 1-.27-.44V389.2a.5.5 0 0 1 .73-.44l165 87.26m0 0-.24.44m236.49 143.47c11.17-5.88 16.8-14.85 17.02-23.84V130.06a.5.5 0 0 1-.17-.32c-1-8.24-6.57-16.27-16.85-21.68l-176.01-92.8m176 604.67.24.44m-.23-.44-176.01 92.8c-8.54 4.5-19.33 6.76-30.15 6.76-10.8 0-21.6-2.26-30.14-6.76l-176-92.8m0 0-.24.44m.23-.44c-11.1-5.86-16.39-14.9-16.65-23.84a31.88 31.88 0 0 1 0-2.34V132.81a30.4 30.4 0 0 1 0-1.91v-.95a.5.5 0 0 0 .08-.22c.76-8.32 6.08-16.14 16.57-21.67l176.01-92.8m0 0-.23-.44m.23.44c8.54-4.5 19.33-6.76 30.14-6.76 10.82 0 21.6 2.26 30.15 6.76m0 0 .23-.44M40.12 624.13c-4.1-8.3-6.16-20-6.2-37.63H7.5v.75c.1 20.38 2.61 35.4 8.37 47.57 5.75 12.16 14.77 21.5 27.95 30.47a238.5 238.5 0 0 0 8.31 5.38l1.86 1.15 10.64 6.5 13.69-22.82-9.48-5.77-3.22-2a206.6 206.6 0 0 1-7.03-4.55l-.53-.35c-9.33-6.43-14.49-11.72-17.94-18.7Zm0 0 .45-.22m263.08-397.09c-4.66 2.47-11.17 3.68-17.65 3.68-6.47 0-12.98-1.21-17.65-3.68l-175.9-93h-.01l-.4-.22-.29-.17a.5.5 0 0 1 0-.86l.14-.09h.01l.02-.01.53-.28 175.9-93C273 36.72 279.52 35.5 286 35.5c6.43 0 12.9 1.2 17.57 3.64l.08.04 175.9 93h.01l.4.22.29.17a.5.5 0 0 1 .25.44.5.5 0 0 1-.26.43l-.14.07-.02.01-.51.3h-.02l-175.9 93Zm0 0-.23-.44M528.2 62.71a255.65 255.65 0 0 0-8.33-5.39l-1.85-1.14-10.65-6.5-13.68 22.82 9.48 5.77 3.22 2a213.93 213.93 0 0 1 7.03 4.56l.53.34h.01c9.32 6.43 14.48 11.72 17.93 18.7m-3.7-41.16.29-.41m-.28.41c13.18 8.97 22.19 18.32 27.94 30.47 5.76 12.17 8.27 27.2 8.37 47.58v.74h-26.42c-.04-17.63-2.1-29.33-6.2-37.63m0 0-.45.22M272.5 265a.5.5 0 0 0-.21-.4.5.5 0 0 0-.45-.07c-1.3.45-2.53.96-3.65 1.56l-175.74 93.1-.53.28h-.02v.01l-.16.1a.5.5 0 0 0-.17.67c.04.08.1.14.18.18l.28.16.4.23h.02l175.74 93.1c1.12.59 2.35 1.1 3.65 1.55a.5.5 0 0 0 .45-.06.52.52 0 0 0 .15-.18.5.5 0 0 0 .06-.23V265Zm27.66-.47a.5.5 0 0 0-.45.06.5.5 0 0 0-.21.4V455a.5.5 0 0 0 .21.4c.06.05.14.08.22.1a.5.5 0 0 0 .23-.03c1.3-.44 2.53-.96 3.65-1.56l175.74-93.1.53-.28.03-.01.15-.1a.5.5 0 0 0 .24-.43.5.5 0 0 0-.25-.42l-.28-.16-.4-.23h-.02l-175.74-93.1a25.85 25.85 0 0 0-3.65-1.55ZM481.5 163a.5.5 0 0 0-.73-.44l-158 83a.5.5 0 0 0 0 .88l158 83a.5.5 0 0 0 .73-.44V163Zm-391.27-.44a.5.5 0 0 0-.49.01.5.5 0 0 0-.24.43v166a.5.5 0 0 0 .73.44l158-83a.5.5 0 0 0 0-.88l-158-83Z"/>
</svg>