<svg xmlns="http://www.w3.org/2000/svg" fill="none" viewBox="0 0 666 564">
  <path fill="#fff" d="M502.27 172.06c-12.28-7.15-28.25-7.15-41.75 0l-95.8 54.77-65.08 35.72-95.78 54.77c-12.29 7.14-28.25 7.14-41.76 0l-76.14-42.86C73.68 267.3 65.1 254.2 65.1 239.93v-84.54a38.43 38.43 0 0 1 20.87-34.53l74.91-41.68c12.28-7.14 28.25-7.14 41.76 0l74.9 41.68c12.29 7.14 20.89 20.24 20.89 34.53v54.77l65.08-36.91v-54.78a38.43 38.43 0 0 0-20.88-34.53L203.87 5.36c-12.29-7.15-28.25-7.15-41.76 0L20.88 83.94A38.43 38.43 0 0 0 0 118.47v158.37a38.43 38.43 0 0 0 20.88 34.53l141.22 78.58c12.28 7.15 28.25 7.15 41.76 0l95.78-53.58 65.09-36.91 95.79-53.58c12.28-7.14 28.24-7.14 41.75 0l74.91 41.67c12.28 7.15 20.88 20.25 20.88 34.53v84.54a38.43 38.43 0 0 1-20.88 34.53l-74.91 42.87c-12.28 7.14-28.25 7.14-41.75 0l-74.91-41.68c-12.28-7.14-20.88-20.24-20.88-34.53v-54.77l-65.09 36.91v54.78a38.43 38.43 0 0 0 20.88 34.53l141.23 78.58c12.27 7.15 28.24 7.15 41.75 0l141.22-78.58C657 472.1 665.6 459 665.6 444.73V286.36a38.43 38.43 0 0 0-20.88-34.53l-142.45-79.77Z"/>
</svg>