
<svg xmlns="http://www.w3.org/2000/svg" version="1.0" width="640.000000pt" height="640.000000pt" viewBox="0 0 640.000000 640.000000" preserveAspectRatio="xMidYMid meet">

<g transform="translate(0.000000,640.000000) scale(0.100000,-0.100000)" fill="#000000" stroke="none">
<path d="M2796 6012 c95 -89 169 -205 216 -337 44 -124 53 -194 52 -420 -1 -231 -11 -312 -94 -720 -98 -486 -112 -581 -113 -775 0 -184 18 -275 77 -395 51 -102 119 -180 211 -242 78 -53 202 -106 211 -91 4 6 3 8 -3 5 -6 -4 -18 3 -26 16 -8 12 -34 42 -56 67 -23 24 -41 47 -41 51 0 4 -6 14 -13 21 -12 13 -52 92 -67 133 -23 62 -30 97 -30 143 0 30 -5 52 -11 52 -17 0 1 406 20 420 3 3 8 25 10 50 2 25 6 47 10 50 4 3 8 25 8 49 1 24 5 46 10 50 5 3 10 22 11 41 2 19 7 37 12 38 6 2 8 7 6 10 -4 7 20 131 43 222 42 165 73 328 65 341 -3 5 -1 9 4 9 13 0 26 155 25 308 -1 184 -1 190 -29 184 -20 -3 -22 -1 -17 19 4 13 8 18 11 11 2 -6 8 -12 12 -12 11 0 9 41 -3 57 -5 7 -7 16 -4 20 3 4 0 19 -5 33 -7 20 -11 22 -19 10 -8 -12 -9 -10 -4 7 13 45 -91 273 -117 257 -7 -4 -8 -2 -4 4 9 14 1 24 -89 116 -78 78 -113 109 -165 146 -19 13 -41 30 -48 37 -6 6 -21 15 -32 18 -11 3 -20 10 -20 15 0 4 -10 10 -22 13 -17 5 -13 -2 18 -31z m393 -366 c-3 -3 -11 5 -18 17 -13 21 -12 21 5 5 10 -10 16 -20 13 -22z m141 -436 c0 -13 -1 -13 -10 0 -5 8 -10 22 -10 30 0 13 1 13 10 0 5 -8 10 -22 10 -30z m0 -37 c0 -5 -5 -15 -10 -23 -8 -12 -10 -11 -10 8 0 12 5 22 10 22 6 0 10 -3 10 -7z m-11 -138 l0 -20 -9 20 c-5 11 -9 29 -9 40 l0 20 9 -20 c5 -11 9 -29 9 -40z"/>
<path d="M3676 5592 c-3 -5 2 -21 10 -36 7 -16 14 -35 14 -42 0 -8 5 -14 10 -14 6 0 10 -13 10 -30 0 -16 5 -30 10 -30 6 0 10 -13 10 -30 0 -16 4 -30 9 -30 5 0 12 -19 15 -42 3 -24 11 -81 17 -128 18 -126 10 -452 -12 -475 -5 -5 -9 -28 -9 -52 0 -24 -4 -43 -10 -43 -5 0 -10 -22 -10 -50 0 -27 -4 -50 -9 -50 -5 0 -11 -19 -14 -42 -5 -43 -17 -102 -38 -188 -43 -186 -44 -325 -3 -505 15 -68 136 -294 174 -325 3 -3 21 -25 40 -50 19 -25 41 -52 50 -60 8 -8 28 -32 43 -53 16 -20 38 -47 51 -60 25 -25 96 -129 113 -167 55 -118 77 -252 69 -411 -14 -277 -18 -329 -29 -322 -7 4 -8 0 -4 -11 9 -22 -16 -132 -43 -191 -11 -24 -20 -48 -20 -54 0 -5 -4 -12 -9 -16 -5 -3 -9 8 -9 25 1 22 4 27 10 18 6 -8 7 0 4 22 -3 19 -3 29 0 23 10 -23 21 -14 33 28 9 31 10 44 1 53 -8 8 -10 7 -7 -4 2 -8 2 -11 -1 -7 -2 4 -11 2 -20 -5 -16 -12 -16 -11 -2 6 14 18 13 19 -1 14 -9 -4 -21 -2 -26 3 -12 12 -57 -26 -48 -40 3 -7 0 -8 -9 -5 -9 3 -20 -3 -28 -15 -7 -12 -17 -21 -22 -21 -5 0 -17 -7 -26 -15 -23 -21 -130 -85 -141 -85 -5 0 -17 -4 -27 -9 -51 -26 -66 -30 -187 -54 -77 -15 -203 -14 -280 2 -33 6 -75 14 -92 18 -18 3 -33 9 -33 14 0 5 -6 9 -14 9 -17 0 -100 42 -104 53 -2 4 -12 7 -23 7 -10 0 -19 4 -19 8 0 5 -12 15 -27 23 -37 19 -193 177 -193 195 0 8 -4 14 -10 14 -5 0 -10 6 -10 13 0 7 -9 23 -20 35 -11 12 -20 28 -20 37 0 8 -4 15 -10 15 -5 0 -10 10 -10 23 0 13 -3 27 -7 31 -11 11 -33 79 -33 104 0 12 -4 22 -10 22 -5 0 -10 22 -10 49 0 32 -5 53 -16 61 -13 11 -16 10 -21 -8 -3 -12 -9 -22 -14 -22 -5 0 -9 -9 -9 -20 0 -11 -4 -20 -10 -20 -5 0 -10 -9 -10 -20 0 -11 -4 -20 -10 -20 -5 0 -10 -11 -10 -25 0 -13 -5 -37 -11 -52 -41 -101 -49 -151 -49 -298 0 -142 18 -240 60 -332 11 -24 20 -50 20 -58 0 -8 5 -15 10 -15 6 0 10 -9 10 -20 0 -11 5 -20 10 -20 6 0 10 -9 10 -20 0 -11 4 -20 9 -20 5 0 11 -8 14 -17 6 -20 38 -75 48 -83 4 -3 23 -30 42 -61 20 -31 42 -63 49 -70 8 -8 25 -30 38 -49 13 -19 35 -46 47 -60 13 -14 23 -28 23 -32 0 -3 18 -25 40 -48 22 -23 57 -63 77 -88 21 -26 45 -54 53 -62 49 -49 201 -222 242 -276 12 -16 25 -31 28 -34 11 -9 126 -164 168 -227 44 -65 123 -214 141 -263 5 -17 15 -30 20 -30 6 0 22 21 37 48 24 41 47 72 129 171 54 65 219 223 315 301 30 25 61 51 68 58 8 7 30 25 50 40 21 15 39 29 42 32 3 4 55 44 115 90 596 455 853 688 1030 935 102 142 197 357 224 505 18 101 30 262 20 288 -5 13 -10 53 -10 90 -1 37 -3 59 -6 49 -2 -9 -8 -15 -13 -12 -7 5 -60 -67 -60 -83 0 -4 -9 -14 -20 -22 -11 -8 -20 -20 -20 -27 0 -7 -4 -13 -10 -13 -5 0 -10 -5 -10 -11 0 -15 -91 -99 -107 -99 -7 0 -13 -4 -13 -10 0 -5 -6 -10 -12 -10 -7 0 -24 -9 -38 -20 -14 -11 -35 -20 -47 -20 -13 0 -23 -4 -23 -10 0 -5 -13 -10 -28 -10 -15 0 -32 -4 -37 -9 -9 -8 -87 -16 -122 -12 -10 1 -13 33 -13 124 0 67 -4 138 -10 156 -5 19 -11 49 -12 68 -1 18 -5 33 -8 33 -7 0 -36 101 -32 113 1 4 -1 7 -6 7 -4 0 -13 15 -21 33 -18 40 -126 203 -159 239 -14 15 -30 25 -35 21 -6 -3 -7 -1 -3 6 9 14 -21 49 -188 221 -118 122 -186 221 -186 271 0 10 -4 20 -9 23 -30 19 -52 216 -71 636 -10 238 -18 310 -31 310 -5 0 -9 15 -9 34 0 19 -4 38 -10 41 -5 3 -10 15 -10 26 0 10 -4 19 -10 19 -5 0 -10 14 -10 30 0 17 -4 30 -8 30 -4 0 -19 22 -33 50 -13 27 -27 50 -31 50 -5 0 -8 7 -8 15 0 15 -223 245 -238 245 -5 0 -23 14 -40 30 -18 17 -39 30 -47 30 -8 0 -15 4 -15 9 0 5 -13 14 -30 21 -16 7 -30 16 -30 21 0 5 -9 9 -20 9 -11 0 -20 5 -20 10 0 6 -6 10 -13 10 -7 0 -23 9 -35 20 -22 21 -47 26 -56 12z m421 -3434 c-3 -7 -5 -2 -5 12 0 14 2 19 5 13 2 -7 2 -19 0 -25z m-14 -123 c-3 -9 -8 -14 -10 -11 -3 3 -2 9 2 15 9 16 15 13 8 -4z"/>
<path d="M2603 4154 c-15 -21 -42 -53 -58 -73 -17 -20 -60 -76 -97 -126 -284 -390 -432 -698 -515 -1070 -22 -103 -25 -465 -4 -565 42 -201 107 -373 206 -550 64 -113 84 -142 85 -119 0 8 -4 19 -8 25 -5 5 -14 29 -21 54 -7 25 -17 53 -22 62 -5 10 -9 31 -9 47 0 17 -4 33 -10 36 -5 3 -10 23 -10 44 0 20 -4 41 -9 47 -17 17 -39 450 -25 482 10 23 13 40 15 90 2 23 6 42 11 42 4 0 8 14 8 32 0 17 4 45 10 62 5 17 15 52 22 79 7 26 16 47 20 47 4 0 8 14 8 30 0 17 5 30 11 30 5 0 8 4 5 8 -2 4 11 39 30 76 19 38 34 74 34 80 0 6 9 18 20 26 11 8 20 21 20 28 0 12 34 67 50 82 3 3 11 17 19 33 8 15 18 27 23 27 4 0 8 7 8 16 0 8 5 12 10 9 6 -3 10 1 10 10 0 10 5 13 12 9 6 -4 8 -3 5 3 -8 13 72 105 85 97 4 -3 7 -2 6 3 -2 5 18 31 43 57 l47 48 -15 56 c-35 141 -40 310 -14 488 11 77 23 148 27 157 10 28 -3 19 -33 -19z"/>
<path d="M1947 4072 c10 -6 10 -12 -2 -28 -8 -10 -14 -23 -15 -29 0 -5 10 5 21 22 12 19 26 30 32 26 7 -3 9 -2 4 2 -4 5 -18 10 -30 12 -14 2 -17 0 -10 -5z"/>
<path d="M1906 3975 c4 -10 2 -14 -8 -10 -18 7 -42 -19 -35 -37 3 -8 9 -4 16 12 10 21 11 21 8 4 -3 -12 0 -28 5 -35 8 -11 9 -10 4 3 -3 10 -1 20 4 23 6 4 10 -7 10 -24 0 -28 -3 -31 -30 -31 -16 0 -30 -4 -30 -10 0 -5 5 -9 11 -7 6 1 13 -3 16 -9 2 -7 -7 -11 -22 -11 -20 0 -25 3 -19 16 3 9 8 27 11 41 3 21 1 19 -16 -10 -13 -24 -16 -40 -10 -52 14 -26 11 -34 -6 -12 -13 17 -14 17 -15 2 0 -10 -4 -18 -9 -18 -5 0 -15 -16 -22 -35 -7 -19 -17 -35 -21 -35 -4 0 -8 -6 -8 -13 0 -8 -14 -42 -31 -77 -17 -35 -40 -89 -51 -119 -21 -61 -36 -97 -49 -123 -5 -10 -9 -28 -9 -41 0 -24 -17 -47 -35 -47 -15 0 -98 81 -114 113 -8 15 -18 27 -23 27 -4 0 -8 9 -8 20 0 11 -3 20 -8 20 -4 0 -13 15 -20 33 -7 17 -18 40 -23 49 -5 10 -9 27 -9 38 0 11 -4 20 -10 20 -5 0 -10 18 -10 40 0 22 -4 40 -10 40 -5 0 -10 16 -10 35 0 19 -4 35 -10 35 -5 0 -10 -9 -10 -20 0 -11 -4 -29 -10 -40 -5 -11 -14 -29 -20 -40 -5 -11 -10 -31 -10 -45 0 -14 -5 -25 -12 -25 -6 0 -9 -3 -6 -6 4 -3 2 -20 -4 -37 -22 -70 -50 -175 -59 -222 -5 -27 -14 -72 -20 -100 -65 -311 -42 -691 55 -950 72 -191 194 -390 317 -517 20 -21 35 -38 34 -38 -2 0 18 -22 43 -49 26 -28 49 -48 51 -45 2 2 -3 12 -11 21 -8 10 -18 25 -22 33 -4 8 1 5 12 -7 25 -28 32 -29 25 -4 -3 10 0 22 6 25 6 4 11 12 11 17 0 6 -4 8 -9 5 -13 -8 -21 20 -9 32 7 7 7 21 -1 45 -7 19 -11 52 -10 74 3 45 -9 86 -22 78 -19 -12 -8 45 12 58 16 12 20 23 17 53 -2 27 -8 39 -18 39 -9 0 -16 11 -18 31 -3 26 1 33 20 38 l23 6 -25 20 c-14 11 -19 20 -12 20 8 0 12 23 12 79 0 44 4 81 9 83 13 4 17 93 5 110 -6 7 -11 38 -13 68 -1 37 -8 61 -20 74 -16 15 -17 24 -9 53 7 24 6 39 -3 49 -9 11 -8 14 10 14 11 0 21 3 21 6 0 14 -24 100 -29 104 -3 3 -11 19 -17 35 -16 45 -3 248 17 269 5 6 9 18 9 28 0 47 99 273 167 381 13 21 36 60 50 85 14 26 33 56 42 67 26 31 61 84 61 90 0 3 -4 3 -10 0 -15 -9 -12 8 6 33 9 13 13 26 9 30 -3 3 -10 0 -15 -8 -6 -10 -9 -4 -10 20 0 19 -1 43 -1 52 0 10 -4 20 -10 23 -5 3 -6 -1 -3 -10z m-339 -957 c-3 -8 -6 -5 -6 6 -1 11 2 17 5 13 3 -3 4 -12 1 -19z m13 -49 c0 -6 -4 -7 -10 -4 -5 3 -10 11 -10 16 0 6 5 7 10 4 6 -3 10 -11 10 -16z m7 -141 c-3 -8 -6 -5 -6 6 -1 11 2 17 5 13 3 -3 4 -12 1 -19z m48 -1088 c3 -5 1 -10 -4 -10 -6 0 -11 5 -11 10 0 6 2 10 4 10 3 0 8 -4 11 -10z"/>
<path d="M1962 3954 c-28 -19 -28 -34 -2 -34 17 0 19 -3 10 -19 -16 -31 -12 -37 10 -13 11 12 20 25 20 31 0 5 6 11 12 13 9 3 8 9 -4 21 -20 21 -18 21 -46 1z"/>
<path d="M4150 2379 c-7 -11 -10 -23 -7 -25 2 -2 9 7 15 21 14 30 7 33 -8 4z"/>
<path d="M4160 2339 c0 -5 -4 -8 -9 -4 -6 3 -9 -4 -8 -15 1 -20 2 -20 14 -4 13 18 17 34 8 34 -3 0 -5 -5 -5 -11z"/>
<path d="M4121 2313 c-1 -12 -6 -25 -13 -29 -7 -5 -8 -2 -3 7 6 11 5 11 -5 2 -18 -16 -5 -31 26 -27 29 3 41 11 30 21 -4 4 -12 1 -17 -7 -10 -13 -10 -13 -6 0 2 8 1 24 -4 35 -7 19 -8 19 -8 -2z"/>
<path d="M1700 1711 c0 -7 -6 -11 -14 -8 -9 4 -13 -4 -14 -23 0 -24 3 -27 21 -23 20 5 21 4 5 -8 -20 -16 -11 -39 18 -43 10 -2 18 -9 17 -15 -2 -6 0 -10 5 -10 20 3 25 -2 12 -12 -13 -9 -13 -10 0 -6 8 2 14 10 12 17 -2 8 3 10 13 6 10 -3 13 -2 10 4 -4 6 -14 9 -23 8 -13 -2 -16 3 -14 21 1 14 -3 28 -10 32 -6 4 -13 14 -14 22 -3 22 -23 55 -24 38z m39 -82 c4 -12 2 -12 -13 0 -15 12 -16 12 -9 -5 6 -17 5 -17 -11 -5 -13 11 -14 16 -4 22 17 11 31 6 37 -12z"/>
<path d="M1745 1670 c-3 -6 1 -7 9 -4 18 7 21 14 7 14 -6 0 -13 -4 -16 -10z"/>
<path d="M1816 1508 c3 -5 10 -6 15 -3 13 9 11 12 -6 12 -8 0 -12 -4 -9 -9z"/>
</g>
</svg>