<svg xmlns="http://www.w3.org/2000/svg" fill="none" viewBox="0 0 438 448">
  <g clip-path="url(#chevron-down)">
    <path fill="currentColor" d="m408.1 190.5 22.2 22.2a23.9 23.9 0 0 1 0 33.9L236 441a23.9 23.9 0 0 1-33.9 0L7.7 246.6a23.9 23.9 0 0 1 0-33.9l22.2-22.2c9.5-9.5 25-9.3 34.3.4L179 311.4V24c0-13.3 10.7-24 24-24h32c13.3 0 24 10.7 24 24v287.4l114.8-120.5c9.3-9.8 24.8-10 34.3-.4Z"/>
  </g>
  <defs>
    <clipPath id="chevron-down">
      <path fill="#fff" d="M0 0h438v448H0z"/>
    </clipPath>
  </defs>
</svg>