<svg xmlns="http://www.w3.org/2000/svg" viewBox="0 0 24 24">    <path d="M 6 2 C 4.895 2 4 2.895 4 4 L 4 20 C 4 21.105 4.895 22 6 22 L 16.427734 22 C 16.143734 21.337 16 20.641 16 20 L 6 20 L 6 8 L 18 8 L 18 10 L 20 10 L 20 4 C 20 2.895 19.105 2 18 2 L 6 2 z M 6 4 L 18 4 L 18 6 L 6 6 L 6 4 z M 8 10 L 8 12 L 10 12 L 10 10 L 8 10 z M 11 10 L 11 12 L 13 12 L 13 10 L 11 10 z M 14 10 L 14 12 L 16 12 L 16 10 L 14 10 z M 20 12 L 20 13.199219 C 19 13.499219 18 14.4 18 16 C 18 17.9 19.599609 18.500391 20.599609 18.900391 C 21.799609 19.400391 22 19.5 22 20 C 22 20.5 21.8 21 21 21 C 20.2 21 20 20.5 20 20 L 18 20 C 18 21 18.6 22.400781 20 22.800781 L 20 24 L 22 24 L 22 22.800781 C 23.4 22.400781 24 21 24 20 C 24 18.1 22.400391 17.499609 21.400391 17.099609 C 20.200391 16.599609 20 16.5 20 16 C 20 15.2 20.5 15 21 15 C 21.8 15 22 15.5 22 16 L 23 16 L 24 16 C 24 15 23.4 13.599219 22 13.199219 L 22 12 L 20 12 z M 8 13 L 8 15 L 10 15 L 10 13 L 8 13 z M 11 13 L 11 15 L 13 15 L 13 13 L 11 13 z M 14 13 L 14 15 L 16 15 L 16 13 L 14 13 z M 8 16 L 8 18 L 10 18 L 10 16 L 8 16 z M 11 16 L 11 18 L 16 18 L 16 16 L 11 16 z"></path></svg>