<?xml version="1.0" encoding="iso-8859-1"?>
<svg version="1.1" id="Layer_1" xmlns="http://www.w3.org/2000/svg" xmlns:xlink="http://www.w3.org/1999/xlink" x="0px" y="0px"
	 viewBox="0 0 512 512" style="enable-background:new 0 0 512 512;" xml:space="preserve">
<path style="fill:#FFE700;" d="M256,402.469c-37.529,0-75.046-14.28-103.618-42.851c-28.528-28.528-43.758-66.461-42.885-106.809
	c0.822-37.928,16.052-73.595,42.885-100.428c57.134-57.134,150.099-57.135,207.235,0c5.377,5.377,5.377,14.095,0,19.474
	c-5.377,5.377-14.095,5.377-19.474,0c-46.396-46.398-121.893-46.398-168.291,0c-21.791,21.79-34.16,50.752-34.826,81.55
	c-0.709,32.768,11.658,63.572,34.826,86.74c46.398,46.398,121.894,46.398,168.291,0c22.478-22.477,34.855-52.361,34.854-84.147
	c0-7.605,6.164-13.769,13.769-13.769s13.769,6.164,13.769,13.769c0.001,39.143-15.241,75.944-42.92,103.622
	C331.054,388.181,293.521,402.469,256,402.469z"/>
<circle style="fill:#FFD700;" cx="255.996" cy="255.996" r="84.033"/>
<g>
	<path style="fill:#FFE700;" d="M256,353.798c-26.123,0-50.681-10.173-69.154-28.645c-18.471-18.471-28.644-43.03-28.644-69.153
		s10.173-50.681,28.645-69.154c18.471-18.471,43.03-28.644,69.153-28.644s50.681,10.173,69.154,28.645
		c18.471,18.471,28.644,43.03,28.644,69.153s-10.173,50.681-28.645,69.154C306.681,343.625,282.123,353.798,256,353.798z
		 M256,185.74c-18.766,0-36.41,7.309-49.68,20.579C193.049,219.59,185.74,237.234,185.74,256s7.309,36.41,20.579,49.68
		c13.271,13.271,30.914,20.579,49.68,20.579c18.766,0,36.41-7.309,49.68-20.579S326.26,274.766,326.26,256
		c0-18.766-7.309-36.41-20.579-49.68C292.41,193.049,274.766,185.74,256,185.74z"/>
	<path style="fill:#FFE700;" d="M256,86.299c-7.605,0-13.769-6.164-13.769-13.769V13.769C242.231,6.164,248.395,0,256,0
		c7.605,0,13.769,6.164,13.769,13.769V72.53C269.769,80.135,263.605,86.299,256,86.299z"/>
	<path style="fill:#FFE700;" d="M256,512c-7.605,0-13.769-6.164-13.769-13.769V439.47c0-7.605,6.164-13.769,13.769-13.769
		c7.605,0,13.769,6.164,13.769,13.769v58.761C269.769,505.836,263.605,512,256,512z"/>
	<path style="fill:#FFE700;" d="M385.731,140.038c-3.523,0-7.048-1.345-9.736-4.033c-5.377-5.377-5.377-14.095,0-19.474
		l12.544-12.544c5.377-5.375,14.095-5.375,19.474,0c5.377,5.377,5.377,14.095,0,19.474l-12.544,12.544
		C392.78,138.692,389.255,140.038,385.731,140.038z"/>
	<path style="fill:#FFE700;" d="M113.723,412.044c-3.524,0-7.048-1.345-9.736-4.033c-5.377-5.377-5.377-14.095,0-19.474
		l12.544-12.544c5.377-5.375,14.095-5.375,19.474,0c5.377,5.377,5.377,14.095,0,19.474l-12.544,12.544
		C120.772,410.7,117.247,412.044,113.723,412.044z"/>
	<path style="fill:#FFE700;" d="M126.269,140.038c-3.524,0-7.048-1.345-9.736-4.033l-12.544-12.544
		c-5.377-5.377-5.377-14.095,0-19.474c5.377-5.375,14.095-5.375,19.474,0l12.544,12.544c5.377,5.377,5.377,14.095,0,19.474
		C133.316,138.692,129.792,140.038,126.269,140.038z"/>
	<path style="fill:#FFE700;" d="M398.275,412.044c-3.523,0-7.048-1.345-9.736-4.033l-12.544-12.544
		c-5.377-5.377-5.377-14.095,0-19.474c5.377-5.375,14.095-5.375,19.474,0l12.544,12.544c5.377,5.377,5.377,14.095,0,19.474
		C405.324,410.7,401.8,412.044,398.275,412.044z"/>
	<path style="fill:#FFE700;" d="M498.231,269.769H439.47c-7.605,0-13.769-6.164-13.769-13.769c0-7.605,6.164-13.769,13.769-13.769
		h58.761c7.605,0,13.769,6.164,13.769,13.769C512,263.605,505.836,269.769,498.231,269.769z"/>
	<path style="fill:#FFE700;" d="M72.53,269.769H13.769C6.164,269.769,0,263.605,0,256c0-7.605,6.164-13.769,13.769-13.769H72.53
		c7.605,0,13.769,6.164,13.769,13.769C86.299,263.605,80.135,269.769,72.53,269.769z"/>
</g>
<g>
</g>
<g>
</g>
<g>
</g>
<g>
</g>
<g>
</g>
<g>
</g>
<g>
</g>
<g>
</g>
<g>
</g>
<g>
</g>
<g>
</g>
<g>
</g>
<g>
</g>
<g>
</g>
<g>
</g>
</svg>
