<svg xmlns="http://www.w3.org/2000/svg" fill="none" viewBox="0 0 25 19">
  <g clip-path="url(#a)">
    <path fill="currentColor" d="M21.34 5.73a1.78 1.78 0 0 0-3.18 0c-3.23 6.47-3.12 6.16-3.12 6.74 0 1.64 2.12 2.97 4.75 2.97 2.62 0 4.71-1.33 4.71-2.97-.03-.6.05-.32-3.16-6.74Zm-4.3 6.14 2.68-5.34 2.68 5.34h-5.35Zm-6.79.6c0-.6.05-.33-3.16-6.74a1.78 1.78 0 0 0-3.18 0C.68 12.2.79 11.9.79 12.47c0 1.64 2.12 2.97 4.71 2.97 2.6 0 4.75-1.33 4.75-2.97ZM5.5 6.53l2.68 5.34H2.83L5.5 6.54Zm13.62 10.1h-5.3V5.69a2.98 2.98 0 0 0 1.72-2.13h4.21c.66 0 1.16-.53 1.16-1.19 0-.65-.54-1.18-1.16-1.18H15a2.95 2.95 0 0 0-4.72 0H5.5a1.19 1.19 0 0 0-.03 2.37h4.21c.2.96.85 1.75 1.72 2.13v10.93H6.1c-.99 0-1.79.8-1.79 1.79 0 .32.27.59.6.59h15.44a.6.6 0 0 0 .59-.6c0-.98-.8-1.77-1.82-1.77Z"/>
  </g>
  <defs>
    <clipPath id="a">
      <rect width="23.75" height="19" fill="#fff" transform="translate(.75)"/>
    </clipPath>
  </defs>
</svg>